<svg width="608" height="765" viewBox="0 0 608 765" fill="none" xmlns="http://www.w3.org/2000/svg">
<g clip-path="url(#clip0_1679_382)">
<path d="M283.444 491.549C283.639 491.558 283.833 491.505 283.998 491.395C284.164 491.286 284.293 491.125 284.368 490.936C284.444 490.747 284.462 490.538 284.42 490.338C284.379 490.138 284.279 489.956 284.136 489.817L284.07 489.545L284.096 489.479C284.293 488.992 284.623 488.577 285.045 488.285C285.467 487.994 285.961 487.84 286.466 487.842C286.972 487.844 287.465 488.002 287.885 488.297C288.304 488.591 288.631 489.009 288.825 489.498C289.598 491.448 290.583 493.401 290.825 495.463C290.932 496.375 290.887 497.299 290.692 498.194C292.508 494.045 293.452 489.536 293.458 484.973C293.458 483.828 293.397 482.683 293.276 481.545C293.175 480.612 293.036 479.686 292.857 478.766C291.884 473.776 289.793 469.099 286.758 465.119C285.289 464.279 284.101 462.989 283.354 461.421C283.083 460.857 282.892 460.255 282.786 459.634C283.108 458.745 283.277 457.803 283.286 456.853C283.517 456.486 283.93 456.303 284.183 455.945C285.437 454.165 287.165 454.475 288.068 456.895C289.995 457.914 290.014 459.603 288.831 461.227C288.079 462.261 287.975 463.659 287.315 464.766C287.383 464.857 287.454 464.945 287.522 465.036C288.763 466.708 289.845 468.503 290.752 470.395C290.532 468.275 290.795 466.13 291.521 464.137C292.256 462.28 293.634 460.716 294.848 459.11C295.169 458.679 295.605 458.357 296.101 458.185C296.597 458.013 297.13 457.999 297.633 458.144C298.137 458.289 298.588 458.588 298.929 459.001C299.271 459.415 299.488 459.925 299.552 460.468L299.56 460.539C299.379 460.645 299.203 460.758 299.03 460.878C298.813 461.03 298.645 461.247 298.548 461.5C298.451 461.754 298.429 462.032 298.485 462.298C298.542 462.565 298.674 462.808 298.864 462.994C299.055 463.181 299.294 463.303 299.552 463.345L299.579 463.349C299.514 464.03 299.401 464.704 299.239 465.366C300.796 471.671 297.435 473.967 292.635 474.07C292.529 474.127 292.425 474.184 292.319 474.238C293.231 476.942 293.802 479.759 294.02 482.618C294.143 484.304 294.136 485.998 293.998 487.684L294.007 487.624C294.354 485.75 295.309 484.059 296.71 482.837C298.79 481.048 301.729 480.389 303.973 478.951C304.212 478.79 304.489 478.705 304.773 478.704C305.056 478.703 305.334 478.787 305.573 478.946C305.812 479.106 306.003 479.333 306.123 479.602C306.243 479.871 306.287 480.17 306.249 480.464L306.24 480.527C305.906 480.67 305.58 480.834 305.265 481.019C305.085 481.126 304.908 481.239 304.736 481.358C304.519 481.51 304.351 481.727 304.253 481.98C304.156 482.234 304.134 482.512 304.191 482.779C304.247 483.045 304.379 483.288 304.57 483.475C304.76 483.661 305 483.783 305.258 483.825L305.284 483.829L305.338 483.838C304.767 485.267 303.964 486.582 302.967 487.726C301.993 493.23 297.811 493.752 293.338 492.149H293.335C292.845 494.382 292.134 496.556 291.214 498.635H283.634C283.607 498.547 283.582 498.456 283.558 498.367C284.259 498.414 284.964 498.37 285.655 498.237C285.093 497.514 284.53 496.786 283.968 496.063C283.955 496.05 283.944 496.036 283.933 496.021C283.647 495.651 283.359 495.284 283.074 494.914C283.059 493.781 283.183 492.649 283.444 491.549Z" fill="#F2F2F2"/>
<path d="M94.5845 491.549C94.389 491.558 94.1955 491.505 94.0301 491.395C93.8647 491.285 93.7356 491.125 93.66 490.936C93.5845 490.747 93.5664 490.538 93.608 490.338C93.6496 490.138 93.749 489.956 93.8927 489.817L93.9581 489.545L93.9321 489.479C93.7352 488.992 93.4051 488.577 92.9835 488.285C92.5618 487.994 92.0673 487.84 91.5621 487.842C91.0568 487.844 90.5635 488.002 90.1439 488.297C89.7243 488.591 89.3972 489.009 89.2037 489.498C88.4303 491.448 87.4457 493.401 87.2032 495.463C87.0965 496.375 87.1415 497.299 87.3364 498.194C85.5199 494.045 84.5767 489.536 84.5707 484.973C84.5703 483.828 84.6311 482.683 84.7527 481.545C84.8532 480.612 84.9927 479.686 85.1711 478.766C86.1447 473.776 88.235 469.099 91.2703 465.119C92.7394 464.279 93.9275 462.989 94.6745 461.421C94.9451 460.857 95.1363 460.255 95.2423 459.634C94.9203 458.745 94.7511 457.803 94.7424 456.853C94.5114 456.486 94.0981 456.303 93.8458 455.945C92.5914 454.165 90.863 454.475 89.9608 456.895C88.0334 457.914 88.0147 459.603 89.1974 461.227C89.9498 462.261 90.0532 463.659 90.7134 464.766C90.6454 464.857 90.5748 464.945 90.5069 465.036C89.2653 466.708 88.1832 468.503 87.276 470.395C87.4966 468.275 87.2333 466.13 86.5077 464.137C85.7724 462.28 84.3941 460.716 83.1804 459.11C82.8593 458.679 82.4234 458.357 81.9276 458.185C81.4318 458.013 80.8985 457.999 80.395 458.144C79.8915 458.289 79.4405 458.588 79.0989 459.001C78.7574 459.415 78.5406 459.925 78.476 460.468L78.4687 460.539C78.649 460.645 78.8255 460.758 78.9982 460.878C79.2151 461.03 79.3831 461.247 79.4803 461.5C79.5775 461.754 79.5994 462.032 79.5429 462.298C79.4865 462.565 79.3545 462.808 79.1641 462.994C78.9737 463.181 78.7339 463.303 78.4761 463.345L78.4497 463.349C78.514 464.03 78.6275 464.704 78.7893 465.366C77.2322 471.671 80.5939 473.967 85.3939 474.07C85.4998 474.127 85.6031 474.184 85.709 474.238C84.7976 476.942 84.2259 479.759 84.0083 482.618C83.8851 484.304 83.8924 485.998 84.03 487.684L84.0219 487.624C83.6741 485.75 82.7193 484.059 81.3186 482.837C79.2384 481.048 76.2993 480.389 74.0551 478.951C73.8166 478.79 73.5393 478.705 73.2558 478.704C72.9724 478.703 72.6947 478.787 72.4554 478.946C72.2162 479.106 72.0254 479.333 71.9055 479.602C71.7857 479.871 71.7418 480.17 71.779 480.464L71.7882 480.527C72.1227 480.67 72.4485 480.834 72.7635 481.019C72.9438 481.126 73.1203 481.239 73.2929 481.358C73.5098 481.51 73.6779 481.727 73.7751 481.98C73.8723 482.234 73.8941 482.512 73.8377 482.779C73.7813 483.045 73.6492 483.288 73.4589 483.475C73.2685 483.661 73.0287 483.783 72.7709 483.825L72.7445 483.829L72.6901 483.838C73.2618 485.267 74.0641 486.582 75.0619 487.726C76.0355 493.23 80.2172 493.752 84.6902 492.149H84.693C85.1837 494.382 85.8948 496.556 86.8148 498.635H94.3946C94.4218 498.547 94.4463 498.456 94.4708 498.367C93.7692 498.414 93.0648 498.37 92.3734 498.237C92.9358 497.514 93.4981 496.786 94.0605 496.063C94.0731 496.05 94.0849 496.036 94.0958 496.021C94.3811 495.651 94.6691 495.284 94.9543 494.914C94.9695 493.781 94.8451 492.649 94.5845 491.549Z" fill="#F2F2F2"/>
<path d="M209.143 65.1269C210.676 61.8943 213.128 59.2104 214.627 55.9601C216.126 52.71 216.418 48.3598 213.92 45.872C211.799 43.7597 208.477 43.7301 205.941 42.2001C199.479 38.302 199.486 25.9209 192.099 24.8511C188.507 24.3309 185.257 27.1514 183.086 30.1924C180.914 33.2335 179.184 36.7821 176.173 38.8978C172.765 41.2929 168.358 41.397 164.573 43.0606C157.316 46.2502 153.511 54.4518 150.33 61.9892C148.28 66.8448 146.184 72.0819 147.135 77.2963C145.068 78.6428 145.989 82.2644 148.052 83.6171C150.115 84.9698 152.706 84.9398 155.075 85.5257C160.054 86.7572 164.131 90.9071 166.064 95.8666C167.571 99.7322 167.879 103.976 168.169 108.14C168.674 115.365 169.178 122.591 169.682 129.816C169.907 133.03 170.201 136.446 172.07 139.007C173.939 141.569 177.985 142.642 180.086 140.286C182.094 138.035 181.19 134.47 181.149 131.39C181.108 128.31 183.767 124.475 186.275 126.086L187.159 123.986C192.886 121.839 197.901 118.009 201.603 112.956C205.306 107.902 207.539 101.839 208.035 95.491C208.676 85.2666 204.789 74.3037 209.143 65.1269Z" fill="#E6E6E6"/>
<path d="M214.995 129.962C215.548 129.416 215.94 128.716 216.126 127.944C216.311 127.172 216.282 126.361 216.042 125.606C215.802 124.851 215.36 124.183 214.769 123.682C214.179 123.181 213.463 122.868 212.708 122.779L212.718 123.126C211.64 123.785 210.41 124.123 209.162 124.104C207.919 124.083 206.681 124.289 205.504 124.71C204.919 124.933 204.412 125.336 204.05 125.866C203.688 126.397 203.488 127.029 203.476 127.681C203.544 128.18 203.726 128.655 204.007 129.065C204.288 129.475 204.66 129.807 205.09 130.035C205.954 130.48 206.881 130.775 207.836 130.908C210.295 131.392 213.174 131.759 214.995 129.962Z" fill="#E6E6E6"/>
<path d="M262.955 65.2981C263.986 64.5646 264.86 63.6165 265.524 62.513C265.846 61.9547 265.999 61.3075 265.963 60.6564C265.928 60.0053 265.705 59.3808 265.324 58.8647C264.548 58.1603 263.55 57.7828 262.524 57.8057C259.737 57.5878 256.935 57.9337 254.272 58.8245C257.006 61.3604 259.74 63.8964 262.474 66.4325L262.955 65.2981Z" fill="#E6E6E6"/>
<path d="M249.283 71.8937C250.388 73.1707 250.036 75.1516 249.723 76.8434C249.411 78.5351 249.371 80.6492 250.761 81.5721C251.965 82.3721 253.656 81.7193 254.537 80.5447C255.325 79.292 255.805 77.8549 255.934 76.3612C256.367 74.1903 256.563 71.9749 256.517 69.7577C256.465 67.524 255.712 65.3702 254.375 63.6286C253.426 62.496 252.163 61.7027 250.761 61.3599C249.36 61.0171 247.891 61.1421 246.561 61.7173L247.832 61.6517C246.908 62.8931 246.208 64.2998 245.765 65.8034C245.553 66.5588 245.538 67.3598 245.722 68.1232C245.905 68.8867 246.281 69.5848 246.809 70.145C247.563 70.8315 248.613 71.1186 249.283 71.8937Z" fill="#E6E6E6"/>
<path d="M311.607 50.4762L311.832 49.748C310.888 50.3202 310.16 51.2146 309.77 52.2816C309.38 53.3485 309.352 54.5234 309.691 55.6094C310.417 55.0095 310.978 54.2176 311.315 53.3153C311.651 52.413 311.752 51.433 311.607 50.4762Z" fill="#E6E6E6"/>
<path d="M299.329 60.8987C300.532 60.1857 301.558 59.1875 302.326 57.9843C303.094 56.7811 303.582 55.4063 303.751 53.9701C303.881 53.0771 303.782 52.1639 303.465 51.324C303.302 50.907 303.043 50.5387 302.711 50.2518C302.379 49.9649 301.984 49.7683 301.562 49.6794L301.048 50.5271C300.31 49.8624 299.071 50.546 298.761 51.5119C298.561 52.5148 298.644 53.5569 299 54.5111C299.356 55.4711 299.34 56.5384 298.955 57.486C298.541 58.0433 298.074 58.5563 297.563 59.0173C297.313 59.2553 297.15 59.5768 297.102 59.9268C297.053 60.2768 297.122 60.6336 297.297 60.9361C297.781 61.515 298.687 61.2721 299.329 60.8987Z" fill="#E6E6E6"/>
<path d="M294.095 56.1637C294.535 55.3341 294.743 54.3913 294.694 53.4436L293.569 53.0742C292.85 53.3794 292.212 53.8624 291.711 54.4817C291.558 54.6418 291.441 54.8351 291.369 55.0479C291.296 55.2607 291.269 55.4877 291.29 55.7126C291.311 55.9375 291.379 56.1548 291.49 56.3489C291.6 56.5431 291.75 56.7092 291.929 56.8355C292.108 56.9617 292.312 57.045 292.525 57.0793C292.738 57.1136 292.956 57.0981 293.163 57.0339C293.37 56.9697 293.561 56.8584 293.722 56.708C293.883 56.5575 294.011 56.3717 294.095 56.1637Z" fill="#E6E6E6"/>
<path d="M349.079 50.2031C349.181 50.2923 349.282 50.384 349.384 50.474C349.473 50.4543 349.558 50.4189 349.65 50.4072L349.079 50.2031Z" fill="#E6E6E6"/>
<path d="M347.276 60.5396C348.309 59.6649 349.341 58.7901 350.374 57.9154C350.923 57.5089 351.39 56.9942 351.751 56.4002C351.997 55.8378 352.103 55.2193 352.06 54.6023C352.016 53.9853 351.824 53.3899 351.501 52.8716C350.93 51.9529 350.214 51.1423 349.383 50.4741C348.471 50.7002 347.67 51.2686 347.131 52.0717C346.592 52.8748 346.354 53.8569 346.46 54.8319C346.647 56.0722 347.391 57.3985 346.783 58.4811C346.547 58.9027 346.14 59.1897 345.868 59.5867C345.595 59.9836 345.507 60.6158 345.881 60.9077C346.297 61.2318 346.873 60.881 347.276 60.5396Z" fill="#E6E6E6"/>
<path d="M349.535 65.8943C349.919 65.9158 350.303 65.8507 350.66 65.7032C351.018 65.5557 351.342 65.3294 351.609 65.0395C352.989 63.8551 354.197 62.4658 355.194 60.9155C352.87 61.6862 350.546 62.4569 348.222 63.2275L348.947 64.1146C348.303 64.5543 348.78 65.7429 349.535 65.8943Z" fill="#E6E6E6"/>
<path d="M356.048 70.9024C356.19 71.2819 356.446 71.6023 356.778 71.8146C357.11 72.027 357.5 72.1196 357.887 72.0782C358.273 72.0245 358.642 71.8828 358.97 71.6632C359.297 71.4436 359.575 71.1515 359.783 70.8074C360.136 70.262 360.344 69.6278 360.385 68.9702C360.425 68.3126 360.297 67.6556 360.014 67.0671C359.731 66.4787 359.303 65.9801 358.774 65.623C358.245 65.2659 357.635 65.0632 357.006 65.0359L357.647 66.0622C357.811 67.814 355.536 69.2257 356.048 70.9024Z" fill="#E6E6E6"/>
<path d="M401.18 90.089C401.809 90.58 402.572 90.8444 403.357 90.8425C404.141 90.8405 404.903 90.5723 405.529 90.0782C405.935 89.715 406.265 89.268 406.499 88.7651C406.732 88.2623 406.864 87.7143 406.886 87.1557C406.907 86.597 406.819 86.0397 406.625 85.5185C406.432 84.9974 406.138 84.5237 405.761 84.1272L404.574 84.821C403.916 84.3781 403.119 84.2197 402.352 84.3793C401.584 84.539 400.906 85.0041 400.459 85.6768C400.059 86.3819 399.911 87.2134 400.043 88.022C400.176 88.8307 400.579 89.5635 401.18 90.089Z" fill="#E6E6E6"/>
<path d="M414.981 91.7247C415.559 91.549 416.085 91.2209 416.507 90.7718C416.929 90.3227 417.234 89.7676 417.393 89.1597L415.085 88.8423C414.444 88.3347 413.697 87.993 412.905 87.8449C412.508 87.7827 412.102 87.8651 411.756 88.0785C411.411 88.2919 411.145 88.6232 411.005 89.017C410.956 89.352 410.989 89.6946 411.103 90.0121C411.216 90.3296 411.405 90.6115 411.652 90.8308C412.087 91.2657 412.622 91.5763 413.205 91.7328C413.788 91.8894 414.4 91.8866 414.981 91.7247Z" fill="#E6E6E6"/>
<path d="M405.453 96.5547C405.494 96.9477 405.64 97.3205 405.876 97.6294C406.111 97.9384 406.426 98.1708 406.783 98.2996C407.173 98.4933 407.61 98.5599 408.036 98.4907C408.463 98.4215 408.86 98.2198 409.175 97.9116C409.315 97.747 409.415 97.5499 409.467 97.3367C409.519 97.1236 409.521 96.9005 409.474 96.6861C409.427 96.4716 409.332 96.272 409.197 96.1037C409.062 95.9355 408.89 95.8035 408.696 95.7186L406.966 95.3892C406.297 95.0267 405.442 95.7665 405.453 96.5547Z" fill="#E6E6E6"/>
<path d="M305.052 109.293L303.712 108.013C304.069 108.533 304.525 108.969 305.052 109.293Z" fill="#E6E6E6"/>
<path d="M294.822 101.754C295.647 105.763 299.771 109.029 303.515 107.824L303.712 108.013C302.52 106.305 302.318 103.778 302.597 101.58C303.113 97.8134 304.528 94.2441 306.709 91.2009C308.89 88.1578 311.769 85.7389 315.079 84.1675C315.985 83.8712 316.796 83.3182 317.421 82.5697C317.955 81.7527 317.755 80.3518 316.836 80.121C316.337 80.0613 315.833 80.1834 315.409 80.4669L308.451 84.0522C304.937 85.8631 301.353 87.7258 298.593 90.6352C295.832 93.5447 293.998 97.7449 294.822 101.754Z" fill="#E6E6E6"/>
<path d="M182.51 239.605C176.027 234.747 168.927 230.862 161.415 228.064C156.798 226.345 151.838 225.034 147.027 226.01C144.389 226.582 141.917 227.796 139.812 229.556C137.707 231.315 136.028 233.57 134.911 236.137C133.835 238.722 133.329 241.528 133.431 244.345C133.532 247.163 134.238 249.921 135.497 252.414C137.715 256.766 141.557 260.232 142.841 264.979C143.707 268.179 143.297 271.585 142.88 274.882C142.028 281.62 141.177 288.357 140.325 295.095C139.55 301.229 138.794 307.613 140.649 313.488C142.504 319.363 147.797 324.542 153.677 323.918L154.843 323.826C150.953 321.057 149.863 315.324 151.021 310.551C152.179 305.778 155.118 301.73 157.988 297.829C166.505 286.25 175.021 274.672 183.538 263.093C186.984 258.409 190.628 252.619 188.791 247.028C187.746 243.85 185.119 241.562 182.51 239.605Z" fill="#E6E6E6"/>
<path d="M124.47 210.336C123.607 210.029 122.696 210.71 122.189 211.502C121.779 212.352 121.298 213.163 120.75 213.924C119.423 215.355 117.006 215.071 115.575 213.754C114.144 212.436 113.524 210.399 113.246 208.426C112.913 206.058 113.057 203.416 114.55 201.603C116.086 199.737 118.612 199.236 120.936 198.848C123.337 198.448 126.026 198.114 127.993 199.61C129.232 200.552 129.954 202.073 131.102 203.134C132.249 204.195 134.291 204.597 135.154 203.274C135.38 202.804 135.495 202.285 135.487 201.759C135.48 201.234 135.352 200.718 135.113 200.256C134.627 199.335 134.335 198.317 134.256 197.268C134.314 195.813 135.43 194.656 136.572 193.825C137.714 192.993 139.003 192.275 139.753 191.048C140.674 189.539 140.576 187.594 141.148 185.906C142.532 181.819 147.469 180.001 148.908 175.935C149.254 175.08 149.293 174.122 149.017 173.239C148.415 171.619 146.788 171.937 146.688 169.958C146.593 168.064 148.101 166.207 149.634 165.416C151.748 164.326 154.211 164.415 156.567 164.348C158.922 164.282 161.459 163.954 163.188 162.278C163.747 161.674 164.178 160.953 164.454 160.163C164.729 159.373 164.841 158.531 164.784 157.692C164.727 156.852 164.501 156.036 164.121 155.294C163.741 154.553 163.217 153.904 162.581 153.39C161.293 152.458 159.665 152.134 158.412 151.153C156.851 149.93 156.112 147.893 154.896 146.297C153.885 145.082 152.727 144.009 151.453 143.105C150.41 142.295 149.367 141.485 148.324 140.674C146.438 139.209 144.476 137.707 142.181 137.185C139.886 136.663 137.153 137.401 136.004 139.546C135.551 140.501 135.303 141.549 135.279 142.616C135.174 145.127 135.274 147.643 135.578 150.137C135.767 152.144 135.957 154.151 136.146 156.158C136.316 157.957 136.134 160.329 134.465 160.796C130.764 161.832 132.013 156.103 131.192 154.348C129.936 151.661 124.163 150.371 121.696 149.251C120.154 148.552 118.528 147.78 117.597 146.316C116.439 144.494 116.677 142.014 117.585 140.042C118.493 138.071 119.973 136.466 121.318 134.79C122.688 133.082 123.936 131.27 125.182 129.46C126.628 127.361 128.074 125.263 129.519 123.164C131.374 120.472 133.323 117.186 132.27 114.056C132.041 113.637 131.7 113.298 131.289 113.082C130.877 112.865 130.414 112.78 129.957 112.838C129.5 112.896 129.069 113.093 128.718 113.406C128.368 113.719 128.114 114.133 127.987 114.597C127.525 116.287 128.757 118.444 127.579 119.697C127.175 120.037 126.67 120.218 126.152 120.208C125.634 120.198 125.136 119.997 124.745 119.641C123.982 118.904 123.401 117.983 123.051 116.96C121.624 113.639 120.233 110.298 118.768 106.995C118.305 105.951 117.822 104.164 116.418 104.339C115.2 104.492 114.542 106.351 114.584 107.431C114.646 109.001 115.475 110.404 116.108 111.829C116.742 113.254 117.185 114.964 116.489 116.357C115.609 118.12 113.378 118.517 111.478 118.458C107.897 118.345 104.388 117.375 101.22 115.624C101.137 117.467 101.054 119.31 100.972 121.153C98.4499 120.048 95.9282 118.943 93.4066 117.838C92.9168 117.623 92.4271 117.408 91.9373 117.194C89.8102 116.261 87.6804 115.328 85.4906 114.572C84.2475 114.142 82.987 113.77 81.727 113.398C80.9611 113.172 80.1951 112.946 79.4292 112.72C77.9178 112.159 76.3147 111.92 74.7139 112.016C73.032 112.237 71.5318 113.183 69.9763 113.89C66.5059 115.467 62.0172 113.88 58.2983 113.852C56.8231 111.597 54.8315 109.766 52.5056 108.525C50.1798 107.284 47.5939 106.674 44.9845 106.749C42.3751 106.825 39.8254 107.584 37.5688 108.958C35.3121 110.332 33.4204 112.276 32.0668 114.613C31.4129 115.797 30.8306 117.023 30.3233 118.283C29.8187 119.467 29.3141 120.651 28.8095 121.835C28.0693 123.572 27.3127 125.402 27.4582 127.297C27.6037 129.193 28.9918 131.13 30.8082 131.113C26.5249 133.143 25.6336 140.248 29.2708 143.367C30.278 144.231 31.5131 144.796 32.4194 145.775C33.1045 146.514 33.5627 147.451 33.7355 148.466C33.9082 149.48 33.7875 150.525 33.3889 151.467C32.9903 152.409 32.3319 153.205 31.4982 153.752C30.6646 154.3 29.6937 154.574 28.7102 154.539C31.2478 155.566 34.043 155.662 36.6391 154.81C39.2353 153.959 41.479 152.211 43.0036 149.852C44.5587 147.303 45.2345 144.118 47.35 142.058C50.1516 139.33 54.7791 139.542 58.0103 141.687C61.2416 143.832 63.2857 147.484 64.6917 151.21C66.5343 156.092 67.7135 161.671 71.639 164.936C73.5371 166.515 75.9408 167.404 77.6185 169.236C80.0077 171.845 80.421 175.783 80.3671 179.398C80.3132 183.012 79.9415 186.762 81.1989 190.128C82.4564 193.494 86.0614 196.263 89.2941 194.994C88.368 197.871 88.3964 200.991 89.3747 203.848C90.3529 206.706 92.2238 209.134 94.6844 210.74C94.0954 206.916 93.5065 203.091 92.9176 199.267C95.853 200.132 97.7555 203.113 98.8542 206.091C99.953 209.069 100.534 212.29 102.126 215.013C104.634 219.3 109.176 221.148 113.796 221.131C118.787 221.114 120.681 218.622 123.97 214.953C124.631 214.327 125.133 213.539 125.43 212.659C125.564 212.216 125.541 211.737 125.364 211.31C125.188 210.883 124.87 210.537 124.47 210.336Z" fill="#E6E6E6"/>
<path d="M138.602 210.145C135.812 209.686 133.023 209.227 130.233 208.768C131.695 209.688 133.158 210.609 134.62 211.529C135.84 212.379 137.166 213.048 138.56 213.517C139.26 213.747 139.997 213.824 140.726 213.744C141.455 213.664 142.161 213.427 142.799 213.05L142.442 212.335C141.879 210.846 140.113 210.394 138.602 210.145Z" fill="#E6E6E6"/>
<path d="M136.706 226.38L136.725 226.329C136.556 226.036 136.308 225.803 136.012 225.659C135.715 225.515 135.384 225.468 135.062 225.522C134.419 225.642 133.762 225.654 133.116 225.555C132.706 225.387 132.34 225.119 132.049 224.773C131.758 224.426 131.55 224.012 131.444 223.564C131.166 222.691 131.084 221.757 130.768 220.898C130.54 220.218 130.138 219.618 129.605 219.162C129.071 218.707 128.429 218.415 127.747 218.317C127.063 218.26 126.385 218.487 125.86 218.948C125.334 219.41 125.004 220.07 124.939 220.785C124.993 221.521 125.216 222.233 125.59 222.859C125.891 223.465 126.192 224.071 126.493 224.677C126.746 225.22 127.038 225.743 127.366 226.241C127.898 227.009 128.595 227.637 129.4 228.074C130.205 228.511 131.096 228.746 132.002 228.759C132.909 228.773 133.806 228.565 134.623 228.152C135.439 227.739 136.153 227.132 136.706 226.38Z" fill="#E6E6E6"/>
<path d="M120.414 70.9522C122.538 72.2633 125.198 73.167 126.207 75.5225L126.79 75.7195C126.155 76.5457 125.52 77.372 124.884 78.1983C124.1 79.2194 123.274 80.3571 123.293 81.6676C123.318 83.4725 124.976 84.8342 126.652 85.2597C128.44 85.6449 130.301 85.3208 131.873 84.3503C133.446 83.3798 134.618 81.8322 135.162 80.0079C135.361 79.247 135.443 78.4579 135.618 77.6905C136.128 75.8704 136.896 74.1412 137.899 72.5613C143.539 62.6259 149.18 52.6904 154.82 42.755C155.523 41.5176 156.247 40.0374 155.719 38.7085C155.437 38.1464 155.001 37.6856 154.466 37.3854C153.932 37.0852 153.324 36.9594 152.721 37.0241C151.517 37.1772 150.356 37.5861 149.308 38.2258C148.843 37.3699 148.186 36.6451 147.394 36.1135C146.602 35.582 145.699 35.2596 144.762 35.1741C142.888 35.0227 141.003 35.1946 139.182 35.6829C135.069 36.3327 131.103 37.7592 127.477 39.8932C125.493 40.9432 123.31 42.2399 122.734 44.4879C122.026 47.2531 124.308 50.0713 126.935 50.866C129.561 51.6607 132.365 50.9933 135.024 50.3244C135.325 51.6738 135.199 53.0888 134.667 54.3574C134.135 55.626 133.224 56.6799 132.072 57.361C130.919 58.0421 129.587 58.3138 128.275 58.1354C126.962 57.957 125.74 57.3381 124.792 56.3714C122.886 54.4285 121.953 51.0558 119.336 50.5544C116.728 50.0546 114.655 52.9672 114.079 55.6771C113.516 58.5959 113.822 61.6253 114.954 64.3567C116.087 67.088 117.993 69.3901 120.414 70.9522Z" fill="#E6E6E6"/>
<path d="M153.129 118.76C151.873 115.053 150.222 111.506 148.207 108.187C146.681 105.562 144.796 103.184 142.614 101.129C140.619 99.3256 138.326 97.9193 135.848 96.9796C133.443 96.0689 130.765 95.619 128.333 96.4494C125.902 97.2798 123.833 99.6469 123.882 102.324C123.937 105.285 126.411 107.6 128.989 108.816C131.567 110.033 134.436 110.562 136.868 112.072C138.522 113.123 139.904 114.582 140.893 116.323C141.882 118.063 142.448 120.031 142.54 122.054L143.153 123.115C141.765 123.597 140.47 124.334 139.331 125.294C138.767 125.781 138.335 126.416 138.08 127.134C137.826 127.852 137.756 128.628 137.879 129.383C138.304 131.176 140.053 132.205 141.634 133.024C144.555 134.539 147.476 136.054 150.397 137.568C148.91 132.925 153.779 128.604 154.048 123.715C154.059 122.016 153.746 120.331 153.129 118.76Z" fill="#E6E6E6"/>
<path d="M79.679 106.223C81.451 107.664 84.1755 106.99 85.7988 105.369C87.4221 103.747 88.2127 101.44 88.9501 99.2213C88.6808 101.417 88.7063 103.642 89.0258 105.83C89.1922 106.925 89.5739 107.971 90.1465 108.903C90.7191 109.835 91.4703 110.632 92.3525 111.244C93.1535 111.704 94.017 112.033 94.913 112.22C99.0782 113.213 103.431 112.887 107.419 111.285L107.455 109.857C105.452 110.096 103.935 107.796 103.803 105.689C103.671 103.582 104.401 101.516 104.465 99.406C104.53 97.2959 103.558 94.8304 101.574 94.4549C101.921 95.1852 102.048 96.009 101.937 96.8165C101.826 97.624 101.483 98.377 100.953 98.9754C100.424 99.5737 99.7325 99.989 98.9718 100.166C98.2111 100.343 97.417 100.273 96.6952 99.9657C94.3983 98.988 93.5639 96.0583 91.7889 94.2458C90.6922 93.2244 89.3315 92.5652 87.878 92.3511C86.4244 92.1371 84.9429 92.3777 83.6196 93.0428C82.3131 93.7407 81.1669 94.7274 80.2602 95.9345C79.3536 97.1417 78.7081 98.5405 78.3683 100.034C77.8293 102.202 77.9893 104.849 79.679 106.223Z" fill="#E6E6E6"/>
<path d="M134.366 91.1874L134.449 91.0477C133.954 89.5521 132.421 88.6752 130.924 88.4526C129.415 88.3484 127.9 88.4008 126.401 88.6091C124.889 88.814 123.355 88.4603 122.065 87.6091C121.034 86.8027 120.447 85.534 119.624 84.4995C118.8 83.4651 117.467 82.6144 116.271 83.109C114.976 83.6445 114.63 85.5454 115.259 86.8464C115.999 88.0952 117.116 89.0497 118.433 89.5591C123.42 91.9558 129.031 92.5292 134.366 91.1874Z" fill="#E6E6E6"/>
<path d="M117.344 95.6705C116.93 95.9882 116.649 96.4613 116.561 96.9909C116.472 97.5205 116.582 98.0655 116.869 98.5118C117.155 98.9581 117.595 99.2712 118.097 99.3856C118.599 99.5 119.123 99.4068 119.561 99.1256L119.998 99.5772C120.579 98.4875 120.819 97.0277 120.075 96.052C119.745 95.6475 119.284 95.3848 118.78 95.3144C118.276 95.244 117.765 95.3708 117.344 95.6705Z" fill="#E6E6E6"/>
<path d="M112.231 99.5796C112.237 99.1903 112.131 98.8081 111.926 98.4833C111.721 98.1584 111.426 97.9062 111.082 97.7597C110.847 97.7176 110.607 97.7256 110.375 97.7833C110.144 97.841 109.926 97.9471 109.735 98.0953C109.543 98.2436 109.383 98.4308 109.262 98.6458C109.142 98.8608 109.064 99.099 109.034 99.3462C108.998 99.8497 109.061 100.356 109.22 100.833C109.378 101.309 109.629 101.747 109.956 102.118C110.146 102.417 110.395 102.671 110.685 102.862C110.976 103.053 111.302 103.178 111.642 103.227C112.326 103.251 113.025 102.501 112.747 101.845L111.701 101.824C112.024 101.122 112.204 100.358 112.231 99.5796Z" fill="#E6E6E6"/>
<path d="M91.7813 88.3673C92.1653 88.6932 92.5494 89.0191 92.9334 89.345C93.5987 89.9471 94.3172 90.4813 95.0795 90.9403C96.4126 91.7135 97.9805 91.9145 99.4524 91.5008C100.179 91.2838 100.842 90.8788 101.38 90.3231C101.918 89.7674 102.313 89.0789 102.53 88.321C102.989 86.5094 102.24 84.6284 101.507 82.9185C101.34 82.4292 101.064 81.9885 100.702 81.6329C100.517 81.4609 100.28 81.3614 100.032 81.3512C99.7848 81.341 99.5415 81.4208 99.3437 81.577C99.2003 81.764 99.1049 81.9863 99.0667 82.2228C99.0284 82.4593 99.0485 82.7021 99.1251 82.9281C99.2827 83.3786 99.3547 83.8569 99.3371 84.3363C99.2641 84.8092 98.7901 85.2561 98.3725 85.0605L98.306 86.67C96.312 85.6132 95.2574 82.8022 93.0383 82.525C92.5402 82.4628 92.0354 82.545 91.5789 82.7626C91.1224 82.9802 90.7318 83.3249 90.4496 83.7591C90.1674 84.1933 90.0045 84.7002 89.9787 85.2247C89.9529 85.7491 90.0652 86.271 90.3032 86.7332C90.6885 87.3744 91.1908 87.9297 91.7813 88.3673Z" fill="#E6E6E6"/>
<path d="M87.032 81.4188C87.4933 81.0877 87.8582 80.6296 88.0867 80.0952C88.3151 79.5607 88.3981 78.9706 88.3266 78.3898C88.2714 78.1085 88.1576 77.8435 87.9935 77.6134C87.8293 77.3834 87.6188 77.194 87.3768 77.0588C87.1349 76.9236 86.8674 76.8459 86.5935 76.8312C86.3196 76.8165 86.046 76.8651 85.792 76.9737C85.2223 77.4196 84.8221 78.0627 84.6625 78.7884C84.137 80.3405 83.6115 81.8926 83.0859 83.4447L83.9692 82.7718C85.062 82.5254 86.1009 82.0665 87.032 81.4188Z" fill="#E6E6E6"/>
<path d="M97.2674 71.8938C97.4252 71.6855 97.5375 71.4435 97.5963 71.1848C97.6551 70.9261 97.6591 70.6571 97.6079 70.3966C97.5567 70.1362 97.4516 69.8907 97.3001 69.6773C97.1485 69.464 96.9541 69.288 96.7305 69.1618L95.6261 69.0537C95.375 69.1203 95.1423 69.2475 94.9466 69.4253C94.751 69.603 94.5979 69.8263 94.4995 70.0772C94.4012 70.3281 94.3604 70.5997 94.3804 70.8701C94.4005 71.1405 94.4808 71.4022 94.6149 71.6342C94.7489 71.8663 94.9331 72.0622 95.1526 72.2062C95.3721 72.3503 95.6207 72.4384 95.8787 72.4637C96.1366 72.4889 96.3965 72.4505 96.6377 72.3516C96.8789 72.2526 97.0945 72.0958 97.2674 71.8938Z" fill="#E6E6E6"/>
<path d="M107.428 73.6789C108.459 74.1952 109.763 74.6871 110.66 73.9458C110.926 73.6942 111.123 73.3737 111.233 73.0166C111.342 72.6596 111.36 72.2786 111.284 71.9121C111.123 71.1809 110.812 70.4952 110.373 69.9024C109.002 67.8414 107.26 66.0803 105.245 64.7178L104.746 65.3956C104.05 67.2878 103.378 69.4967 104.349 71.2512C105.004 72.434 106.251 73.0889 107.428 73.6789Z" fill="#E6E6E6"/>
<path d="M115.105 75.3626L117.033 76.2752C116.844 75.9304 116.556 75.6567 116.21 75.4929C115.864 75.329 115.478 75.2834 115.105 75.3626Z" fill="#E6E6E6"/>
<path d="M109.912 81.7112L109.002 82.0254C108.227 83.3577 108.563 85.0613 108.923 86.5745C109.151 87.5313 109.642 88.7084 110.583 88.6649C111.498 88.6226 111.903 87.4604 112.079 86.5189C112.353 85.496 112.383 84.4183 112.166 83.3805C112.042 82.8668 111.746 82.4164 111.333 82.1103C110.92 81.8043 110.416 81.6628 109.912 81.7112Z" fill="#E6E6E6"/>
<path d="M95.3897 77.2271L96.0635 77.5112C96.2215 77.4876 96.3676 77.4101 96.4792 77.2907C96.5909 77.1713 96.6618 77.0167 96.681 76.8508C96.7001 76.6849 96.6665 76.5171 96.5854 76.3732C96.5042 76.2294 96.3799 76.1176 96.2319 76.0552C96.0839 75.9928 95.9203 75.9832 95.7666 76.028C95.6129 76.0728 95.4775 76.1695 95.3816 76.303C95.2856 76.4365 95.2344 76.5994 95.2359 76.7665C95.2373 76.9335 95.2914 77.0954 95.3897 77.2271Z" fill="#E6E6E6"/>
<path d="M129.36 131.171C129.034 131.179 128.714 131.268 128.427 131.432C128.14 131.595 127.895 131.828 127.712 132.111C127.528 132.393 127.412 132.718 127.373 133.057C127.334 133.397 127.372 133.741 127.486 134.061C128.148 135.553 130.427 135.56 131.439 134.302C131.699 133.945 131.885 133.535 131.985 133.099C132.086 132.663 132.099 132.21 132.024 131.768C131.949 131.326 131.787 130.905 131.549 130.532C131.31 130.159 131.001 129.842 130.64 129.601L129.36 131.171Z" fill="#E6E6E6"/>
<path d="M162.182 166.51C161.917 166.584 161.669 166.713 161.453 166.889C161.236 167.065 161.055 167.284 160.921 167.535C160.787 167.785 160.703 168.061 160.672 168.346C160.642 168.631 160.666 168.92 160.744 169.195L162.636 169.333C163.277 168.996 163.918 168.659 164.558 168.323C164.52 168.039 164.427 167.766 164.286 167.52C164.144 167.274 163.957 167.06 163.736 166.891C163.514 166.722 163.263 166.601 162.996 166.536C162.729 166.47 162.452 166.461 162.182 166.51Z" fill="#E6E6E6"/>
<path d="M154.492 168.96C153.951 169.362 153.516 169.902 153.23 170.529C152.943 171.156 152.813 171.849 152.853 172.543C152.915 173.235 153.185 173.889 153.625 174.409C154.065 174.93 154.652 175.29 155.301 175.439C155.955 175.546 156.625 175.389 157.173 175C157.722 174.61 158.109 174.017 158.255 173.34C158.575 171.292 156.472 169.791 155.717 167.872L154.492 168.96Z" fill="#E6E6E6"/>
<path d="M227.972 155.429C228.172 156.967 226.848 158.314 226.799 159.866C226.74 161.706 228.654 163.138 230.405 162.958C231.274 162.8 232.096 162.434 232.806 161.887C233.517 161.34 234.097 160.629 234.501 159.808L234.538 159.635C233.686 158.626 232.833 157.617 231.981 156.608C230.933 155.369 229.823 153.959 229.864 152.305C229.885 151.489 230.192 150.699 230.174 149.884C230.133 149.297 230.008 148.72 229.803 148.173C229.573 147.451 229.258 146.639 228.57 146.395C227.708 146.09 226.838 146.89 226.427 147.739C226.057 148.523 225.877 149.389 225.903 150.263C225.93 151.136 226.161 151.99 226.577 152.747C227.075 153.633 227.84 154.411 227.972 155.429Z" fill="#E6E6E6"/>
<path d="M219.931 160.84C220.117 160.946 220.323 161.008 220.535 161.022C220.746 161.036 220.958 161.002 221.156 160.922C221.916 160.787 222.646 160.509 223.312 160.102C223.642 159.894 223.914 159.598 224.099 159.244C224.285 158.89 224.377 158.49 224.366 158.087C224.251 157.579 223.995 157.119 223.629 156.764C223.264 156.409 222.807 156.175 222.315 156.093C221.973 155.967 221.608 155.931 221.25 155.988C220.892 156.045 220.553 156.194 220.263 156.421C219.627 157.045 219.703 158.104 219.828 159.007L219.694 159.242C219.574 159.799 219.498 160.492 219.931 160.84Z" fill="#E6E6E6"/>
<path d="M354.142 226.571C353.957 226.091 353.773 225.611 353.588 225.131C353.335 225.783 353.429 226.45 354.142 226.571Z" fill="#E6E6E6"/>
<path d="M464.85 125.573C462.483 122.885 461.034 121.335 459.539 118.003C458.726 116.165 457.491 114.566 455.944 113.35C454.397 112.134 452.586 111.337 450.674 111.032C445.764 110.185 440.746 111.526 435.777 111.258C427.817 110.827 420.64 106.357 413.017 103.919C408.749 102.667 404.402 101.729 400.01 101.11C397.478 100.691 394.947 100.272 392.416 99.8531C384.119 98.4793 375.768 97.1014 367.37 97.2839C364.948 97.3365 361.574 96.5744 361.768 94.0464C362.009 90.9067 367.405 91.3189 368.443 88.3623C369.085 86.5334 367.548 84.6132 365.863 83.7862C364.178 82.9592 362.232 82.7105 360.703 81.6002C359.174 80.4899 358.336 77.9161 359.741 76.6389C355.845 78.73 351.949 80.8211 348.053 82.9123C344.814 84.6508 341.195 86.9127 340.623 90.6763C338.671 91.2163 336.963 92.4587 335.799 94.1854C333.607 94.1974 331.885 96.4002 331.523 98.6633C331.162 100.926 331.819 103.217 332.469 105.408C331.674 103.814 330.829 102.159 329.428 101.119C328.027 100.079 325.894 99.8805 324.7 101.173C323.474 102.499 323.76 104.724 324.628 106.33C325.495 107.937 326.827 109.234 327.645 110.868C330.201 115.973 325.57 123.16 320.092 122.592C320.459 117.32 320.827 112.049 321.194 106.777C321.427 105.156 321.297 103.5 320.814 101.94C320.216 100.431 318.686 99.1917 317.163 99.548C314.425 100.189 314.659 104.388 315.798 107.072C316.937 109.757 318.073 113.49 315.748 115.133C314.246 116.195 312.211 115.539 310.59 114.692C308.969 113.845 307.235 112.8 305.463 113.196C303.691 113.592 302.577 116.428 304.142 117.383C301.546 116.91 298.95 116.438 296.354 115.966C296.226 116.766 295.938 117.529 295.51 118.205C295.083 118.882 294.524 119.457 293.871 119.893C293.217 120.33 292.484 120.618 291.718 120.739C290.951 120.86 290.169 120.811 289.422 120.596C289.167 119.49 288.912 118.384 288.658 117.279C288.278 117.168 287.898 117.057 287.518 116.946C288.71 117.294 286.845 122.559 285.172 126.582C282.923 126.305 279.637 126.252 279.262 125.578C277.467 122.347 277.68 114.652 274.561 112.835C272.996 111.923 271.392 111.093 269.748 110.343C268.884 109.913 267.972 109.599 267.032 109.41C265.117 109.094 263.185 109.716 261.337 110.33C259.152 111.057 256.917 111.81 255.109 113.284C253.564 114.687 252.24 116.335 251.185 118.169C247.614 123.702 244.043 129.236 240.472 134.769C239.409 136.247 238.571 137.889 237.991 139.637C237.718 140.506 237.627 141.427 237.724 142.336C237.822 143.246 238.106 144.122 238.557 144.906C239.032 145.675 239.74 146.254 240.567 146.55C241.394 146.846 242.293 146.842 243.118 146.538C244.153 146.069 245.189 145.006 246.215 145.497C246.992 145.869 247.186 146.938 247.105 147.828C246.907 148.699 246.891 149.605 247.059 150.484C247.526 151.869 249.322 152.352 250.603 151.752C251.849 151.04 252.783 149.85 253.207 148.433C254.442 145.118 254.316 141.45 254.623 137.906C254.931 134.363 255.856 130.573 258.524 128.369C259.323 127.71 260.497 127.234 261.319 127.861C261.627 128.154 261.84 128.541 261.928 128.966C262.016 129.392 261.975 129.836 261.81 130.236C261.466 131.028 261.018 131.765 260.479 132.426C259.567 133.769 258.929 135.294 258.604 136.906C258.28 138.518 258.276 140.183 258.592 141.797L259.137 142.15C261.218 141.585 264.003 142.597 266.765 143.567C264.76 144.191 262.994 145.463 261.72 147.2C258.527 151.89 256.216 156.329 249.9 156.273C248.402 156.26 246.916 155.95 245.418 155.946C243.905 155.849 242.415 156.368 241.261 157.396C240.125 158.56 239.774 160.334 238.802 161.651C237.524 163.383 235.388 164.088 233.437 164.874C232.012 165.449 230.509 166.225 229.854 167.67C229.442 168.855 229.347 170.135 229.579 171.372C229.799 173.561 230.188 176.049 231.961 177.231C232.624 177.593 233.349 177.813 234.094 177.879C234.839 177.945 235.59 177.856 236.302 177.615C238.146 177.145 239.95 176.261 241.844 176.393C244.817 176.6 247.266 179.589 247.296 182.709C247.312 184.289 246.871 186.101 247.871 187.283C248.811 188.395 250.675 188.197 251.648 187.118C252.101 186.544 252.412 185.862 252.555 185.133C252.698 184.404 252.668 183.65 252.468 182.935C252.055 181.513 251.419 180.171 250.587 178.966C251.576 178.698 252.624 178.797 253.553 179.246C254.481 179.695 255.231 180.467 255.677 181.43C256.338 182.967 256.124 184.74 256.335 186.41C256.546 188.081 257.517 189.937 259.124 190.033C259.649 190.049 260.163 189.871 260.577 189.532C260.99 189.192 261.277 188.711 261.387 188.173C261.404 187.326 261.36 186.478 261.255 185.637C261.31 184.809 261.665 184.035 262.248 183.473C262.831 182.911 263.597 182.603 264.389 182.613C263.901 183.559 263.742 184.653 263.939 185.708C264.137 186.763 264.68 187.713 265.473 188.396C266.696 189.386 268.312 189.608 269.835 189.884C271.359 190.161 272.983 190.599 273.967 191.848C275.604 193.929 273.601 194.867 273.289 196.629C272.906 198.792 274.632 201.987 275.295 204.057C278.341 208.519 281.388 212.982 284.435 217.444C285.115 218.529 285.917 219.525 286.824 220.409C289.831 223.114 294.789 222.847 297.673 219.999C299.072 218.518 299.979 216.606 300.264 214.545C300.548 212.484 300.194 210.381 299.253 208.547C297.47 205.15 293.939 203.046 292.195 199.627C295.098 202.143 298.661 203.677 302.415 204.028C309.055 205.44 315.365 208.211 320.981 212.18C321.245 218.324 323.497 224.191 327.366 228.819C328.062 223.575 330.397 218.721 334.006 215.013C336.353 212.617 339.56 210.684 342.78 211.329C346.001 211.973 348.444 216.273 346.496 219.034C348.128 219.161 349.76 219.288 351.392 219.415C352.124 221.32 352.856 223.226 353.588 225.131C353.718 224.73 353.967 224.384 354.299 224.143C354.631 223.902 355.028 223.778 355.432 223.79C356.96 224.032 358.031 225.52 359.485 226.07C362.224 227.106 365.153 224.236 365.507 221.209C365.861 218.183 364.486 215.26 363.15 212.551C366.101 213.123 369.148 212.782 371.917 211.569C374.687 210.356 377.058 208.324 378.741 205.722C380.425 203.119 381.347 200.06 381.395 196.917C381.443 193.775 380.614 190.686 379.011 188.029C382.187 184.536 385.925 181.655 390.053 179.517C393.874 177.541 398.054 176.184 401.393 173.412C404.732 170.64 407.074 165.826 405.468 161.693C404.333 158.774 401.487 156.792 400.635 153.769C399.403 149.393 403.148 144.866 407.379 143.773C411.61 142.68 416.028 144.023 420.196 145.357C419.556 140.867 424.527 136.657 428.586 138.252C430.287 137.531 431.987 136.81 433.688 136.089C431.717 140.639 427.445 143.534 424.305 147.295C421.164 151.057 419.294 157.182 422.575 160.81C427.277 156.347 431.979 151.885 436.682 147.423C441.6 142.755 446.519 138.088 451.438 133.42C451.203 132.698 450.968 131.975 450.733 131.253C455.387 129.402 460.399 127.872 464.85 125.573Z" fill="#E6E6E6"/>
<path d="M220.605 185.63C220.415 185.916 220.314 186.257 220.316 186.606C220.318 186.955 220.422 187.294 220.615 187.579C220.867 187.803 221.187 187.929 221.518 187.933C221.849 187.938 222.172 187.822 222.43 187.604C222.935 187.153 223.33 186.581 223.58 185.937C223.825 186.432 224.208 186.836 224.68 187.095C225.151 187.353 225.687 187.453 226.214 187.382C227.268 187.215 228.266 186.78 229.12 186.113C229.798 185.697 230.396 185.153 230.885 184.51C231.127 184.186 231.293 183.807 231.37 183.403C231.447 183 231.433 182.583 231.328 182.187C231.075 181.579 230.681 181.046 230.182 180.637C228.937 179.434 227.693 178.23 226.449 177.027L226.027 176.895C225.808 176.65 225.543 176.455 225.25 176.32C224.957 176.185 224.64 176.114 224.32 176.11C223.999 176.106 223.681 176.171 223.385 176.299C223.089 176.427 222.821 176.617 222.597 176.856C221.824 177.762 221.821 179.115 221.939 180.323C222.057 181.531 222.24 182.818 221.727 183.906C221.432 184.53 220.933 185.024 220.605 185.63Z" fill="#E6E6E6"/>
<path d="M292.798 226.735C287.962 225.608 283.536 223.056 280.042 219.379C276.548 215.702 274.133 211.055 273.081 205.987C272.623 203.595 272.415 200.982 270.895 199.132C269.424 197.342 267.02 196.696 264.765 196.696C262.509 196.697 260.285 197.24 258.034 197.387C254.098 197.644 249.927 196.556 247.113 193.663C245.78 192.294 244.771 190.554 243.214 189.474C241.122 188.022 238.348 188.023 235.964 188.846C233.309 189.762 231.183 192.269 228.28 191.924C225.26 191.566 221.761 190.448 220.577 194.611C220.236 195.809 220.352 197.124 219.921 198.29C219.255 200.087 217.489 201.1 216.092 202.356C213.279 204.884 211.783 208.726 211.279 212.572C210.775 216.419 211.165 220.325 211.555 224.186C211.766 226.268 212.043 228.509 213.409 230.038C215.313 232.17 218.509 232.088 221.288 231.848C224.516 231.569 227.744 231.29 230.972 231.011C232.712 230.86 234.695 230.796 235.934 232.085C236.676 232.856 236.99 233.973 237.643 234.829C238.229 235.558 239.034 236.057 239.925 236.245C240.817 236.433 241.744 236.3 242.553 235.866C241.899 237.09 241.542 238.465 241.516 239.868C241.489 241.271 241.793 242.659 242.402 243.909C243.01 245.159 243.903 246.234 245.002 247.036C246.101 247.839 247.373 248.346 248.703 248.512L248.952 248.676C246.885 252.381 244.741 256.542 245.598 260.738C246.333 264.336 249.179 267.22 249.644 270.867C250.071 274.213 248.404 277.634 249.142 280.92C249.889 284.248 253.098 286.568 256.355 286.816C259.611 287.063 262.81 285.551 265.333 283.381C267.855 281.21 269.805 278.415 271.727 275.651C272.914 273.945 274.131 272.169 274.538 270.102C274.972 267.902 274.469 265.465 275.491 263.49C276.669 261.212 279.466 260.358 280.877 258.231C282.705 255.477 281.628 251.726 282.032 248.398C283.032 240.164 293.025 235.032 292.798 226.735Z" fill="#E6E6E6"/>
<path d="M291.355 254.846C291.081 256.132 289.931 256.978 288.836 257.626C287.74 258.273 286.535 258.926 285.977 260.106C285.405 261.315 285.666 262.756 285.966 264.068C286.588 266.798 287.321 269.496 288.164 272.163C289.799 268.929 291.227 265.584 292.437 262.151C292.95 260.872 293.267 259.518 293.375 258.136C293.425 257.444 293.336 256.75 293.114 256.096C292.892 255.443 292.542 254.845 292.086 254.342L291.355 254.846Z" fill="#E6E6E6"/>
<path d="M358.598 240.526C357.225 238.866 355.852 237.207 354.479 235.547C353.54 234.412 352.469 233.2 351.047 233.011L350.461 233.402C351.651 236.37 352.842 239.338 354.033 242.306C354.454 243.661 355.196 244.883 356.189 245.858C357.255 246.734 358.983 246.903 359.872 245.832C360.158 245.43 360.339 244.957 360.395 244.459C360.452 243.961 360.383 243.456 360.194 242.995C359.807 242.079 359.266 241.243 358.598 240.526Z" fill="#E6E6E6"/>
<path d="M371.903 243.703C372.422 243.515 372.898 243.215 373.3 242.822C373.702 242.43 374.021 241.955 374.237 241.426C374.663 240.367 374.944 239.25 375.072 238.109C375.307 236.623 375.541 235.137 375.776 233.65L375.469 233.568C375.171 233.418 374.831 233.387 374.512 233.479C374.193 233.572 373.918 233.782 373.736 234.071C373.39 234.661 373.128 235.301 372.959 235.971C372.872 236.305 372.714 236.615 372.497 236.876C372.279 237.138 372.009 237.344 371.704 237.481C370.602 237.829 369.558 236.606 368.408 236.654C367.943 236.716 367.512 236.941 367.185 237.292C366.858 237.644 366.655 238.101 366.608 238.589C366.541 239.574 366.808 240.552 367.361 241.352C368.342 242.947 370.162 244.228 371.903 243.703Z" fill="#E6E6E6"/>
<path d="M379.495 246.521L382.659 237.795C381.377 238.769 380.395 240.113 379.832 241.663C379.27 243.213 379.153 244.902 379.495 246.521Z" fill="#E6E6E6"/>
<path d="M395.643 239.487L395.003 239.515C394.717 240.108 394.565 240.761 394.559 241.424C394.553 242.088 394.693 242.744 394.968 243.342C395.53 244.534 396.347 245.574 397.356 246.38C398.919 247.731 400.703 248.774 402.622 249.459C405.436 250.318 408.345 250.787 411.275 250.854C412.95 250.969 414.626 251.084 416.301 251.199C417.099 251.253 418.131 251.147 418.353 250.343C418.536 249.679 417.995 249.055 417.491 248.608C413.058 244.704 407.686 242.151 401.961 241.229C399.789 240.883 397.485 240.741 395.643 239.487Z" fill="#E6E6E6"/>
<path d="M413.524 262.644C412.319 261.421 411.114 260.198 409.91 258.975C408.738 257.785 406.983 256.524 405.64 257.496C404.868 258.054 404.63 259.143 403.976 259.847C403.578 260.22 403.096 260.484 402.576 260.614C402.056 260.744 401.513 260.735 400.996 260.59C399.967 260.287 398.995 259.804 398.119 259.162L395.13 257.22C394.098 256.55 393.067 255.879 392.035 255.209L389.707 257.578C389.809 256.412 388.324 255.655 387.297 256.116C386.808 256.403 386.388 256.801 386.067 257.282C385.746 257.762 385.532 258.312 385.442 258.891C385.271 260.048 384.972 261.18 384.553 262.265C383.37 264.634 380.501 265.336 377.976 265.733C375.451 266.129 372.591 266.688 371.24 268.956C370.114 270.845 370.451 273.27 370.828 275.462L372.25 283.752C372.318 284.756 372.702 285.708 373.344 286.458C374.594 287.613 376.53 286.911 378.056 286.207C381.245 284.601 384.667 283.562 388.182 283.134C391.728 282.718 395.297 283.675 398.215 285.824C400.025 287.267 401.404 289.264 403.321 290.545C404.642 291.376 406.126 291.881 407.661 292.022C409.197 292.162 410.742 291.934 412.18 291.354C415.063 290.152 417.449 287.925 418.918 285.063C420.222 282.54 420.877 279.705 420.817 276.837C420.758 273.968 419.986 271.166 418.578 268.704C417.14 266.472 415.442 264.437 413.524 262.644Z" fill="#E6E6E6"/>
<path d="M409.971 296.419C409.682 296.786 409.513 297.241 409.489 297.716C409.465 298.192 409.586 298.663 409.836 299.06C410.361 299.848 411.161 300.387 412.064 300.562C412.957 300.729 413.868 300.773 414.772 300.691L414.8 299.984C414.558 298.743 414.012 297.589 413.213 296.637C412.341 295.769 410.798 295.502 409.971 296.419Z" fill="#E6E6E6"/>
<path d="M440.994 297.175L440.562 297.01C439.534 298.632 438.507 300.254 437.479 301.876C436.926 302.749 436.348 303.797 436.686 304.783C437.085 305.95 438.562 306.292 439.708 305.984C440.584 305.735 441.373 305.23 441.984 304.528C442.594 303.826 443.001 302.957 443.157 302.021C443.283 301.081 443.146 300.122 442.762 299.262C442.378 298.402 441.764 297.677 440.994 297.175Z" fill="#E6E6E6"/>
<path d="M448.831 292.027L445.993 289.665C445.955 290.761 445.917 291.857 445.879 292.952L445.772 292.954C446.427 293.555 447.045 294.198 447.622 294.88C448.287 295.471 449.401 295.742 449.969 295.049C450.139 294.801 450.235 294.506 450.246 294.201C450.257 293.896 450.182 293.595 450.03 293.334C449.718 292.819 449.31 292.374 448.831 292.027Z" fill="#E6E6E6"/>
<path d="M397.56 189.26C396.369 189.221 395.051 189.146 394.128 189.935C393.825 190.219 393.559 190.544 393.337 190.901L393.011 191.378C392.524 192.045 392.1 192.76 391.743 193.513C391.557 193.865 391.446 194.256 391.416 194.657C391.386 195.059 391.439 195.463 391.571 195.841C391.647 196.022 391.761 196.183 391.903 196.313C392.045 196.443 392.213 196.539 392.395 196.593C392.576 196.648 392.767 196.66 392.953 196.629C393.14 196.598 393.318 196.524 393.474 196.413C393.983 195.919 393.864 195.024 394.249 194.42C394.418 194.192 394.636 194.009 394.885 193.884C395.133 193.76 395.406 193.697 395.682 193.702C396.232 193.717 396.779 193.782 397.318 193.896C398.811 194.11 400.331 193.872 401.699 193.211C403.067 192.55 404.226 191.492 405.038 190.164C405.85 188.835 406.283 187.291 406.284 185.713C406.285 184.135 405.854 182.59 405.044 181.261L404.948 180.954C404.123 180.921 403.314 181.192 402.661 181.72C402.007 182.247 401.551 182.998 401.372 183.841C401.105 185.294 401.67 186.981 400.829 188.17C400.119 189.172 398.751 189.299 397.56 189.26Z" fill="#E6E6E6"/>
<path d="M408.22 173.86L408.039 173.843C406.974 174.047 405.951 174.446 405.019 175.021C404.713 175.17 404.468 175.43 404.331 175.752C404.29 175.923 404.291 176.102 404.333 176.273C404.375 176.444 404.457 176.601 404.571 176.73C404.802 176.986 405.073 177.199 405.372 177.361C405.817 177.672 406.309 177.903 406.827 178.043C407.087 178.11 407.359 178.108 407.618 178.038C407.878 177.968 408.116 177.831 408.313 177.641C408.497 177.376 408.624 177.072 408.684 176.75C408.744 176.428 408.736 176.097 408.661 175.778C408.576 175.125 408.428 174.482 408.22 173.86Z" fill="#E6E6E6"/>
<path d="M389.866 189.631C390.15 189.153 390.353 188.627 390.463 188.076C390.574 187.648 390.685 187.221 390.796 186.793L389.609 186.038C389.043 186.347 388.52 186.738 388.056 187.198C387.825 187.43 387.642 187.709 387.52 188.019C387.397 188.328 387.337 188.66 387.343 188.995C387.359 189.33 387.483 189.649 387.695 189.901C387.906 190.152 388.193 190.321 388.508 190.38C388.777 190.389 389.043 190.324 389.281 190.193C389.519 190.061 389.721 189.868 389.866 189.631Z" fill="#E6E6E6"/>
<path d="M260.553 74.0598C260.083 74.3661 260.216 75.1066 260.406 75.6504C260.625 76.2746 260.844 76.8989 261.062 77.523L261.368 76.3113C261.637 75.8413 261.755 75.2939 261.706 74.7486C261.6 74.216 260.994 73.772 260.553 74.0598Z" fill="#E6E6E6"/>
</g>
<g clip-path="url(#clip1_1679_382)">
<path d="M477.56 370.948C477.56 372.307 477.411 373.699 477.096 375.091L463.951 433.658C462.087 441.984 454.118 447.14 446.173 445.171L393.492 428.057L390.919 427.225C387.922 429.498 383.738 430.544 379.364 429.737C371.717 428.32 366.423 421.806 367.54 415.176C368.658 408.554 375.761 404.329 383.407 405.737C387.781 406.544 391.376 409.023 393.453 412.227L393.492 412.235L393.626 412.26L439.479 418.198L443.333 369.507C444.065 360.2 451.491 353.043 460.411 353.043C470.087 353.043 477.56 361.32 477.56 370.948Z" fill="#ED9DA0"/>
<path d="M477.56 370.948C477.56 372.307 477.411 373.699 477.096 375.091L466.311 436.128C464.447 444.455 456.478 449.611 448.533 447.642L395.852 432.307L398.212 408.422L438.33 414.187L443.333 369.507C444.065 360.2 451.491 353.043 460.411 353.043C470.087 353.043 477.56 361.32 477.56 370.948Z" fill="#2F2E43"/>
<path d="M0 763.395H47.658H90.0191H91.7221H129.014H384.402H445.174H607.458" stroke="#090814" stroke-width="1.5" stroke-miterlimit="10"/>
<path d="M545.979 692.573L533.255 702.395L542.636 715.717L555.36 705.896L545.979 692.573Z" fill="#ED9DA0"/>
<path d="M561.722 719.691L534.674 740.568C532.362 742.353 529.649 743.592 526.827 744.151L520.073 745.491C518.677 745.767 517.23 745.172 516.386 743.975C515.397 742.57 515.425 740.631 516.454 739.258L524.643 728.337L535.422 705.068L535.485 705.128C537.043 706.619 539.409 708.862 539.587 708.972C542.916 709.744 545.472 709.31 547.185 707.684C550.174 704.848 549.571 699.286 549.565 699.23L549.56 699.187L549.595 699.165C550.41 698.664 551.194 698.551 551.927 698.831C553.483 699.426 554.295 701.564 554.411 701.891C555.93 702.114 559.88 706.856 560.198 707.24C562.471 707.671 564.035 708.565 564.848 709.895C565.559 711.059 565.697 712.542 565.258 714.305C564.73 716.425 563.474 718.338 561.722 719.691Z" fill="#2F2E43"/>
<path d="M436.861 731.448H421.052V747.999H436.861V731.448Z" fill="#ED9DA0"/>
<path d="M434.163 763.055H400.559C397.687 763.055 394.8 762.366 392.212 761.064L386.017 757.946C384.736 757.301 383.908 755.923 383.908 754.435C383.908 752.69 385.03 751.146 386.636 750.681L399.417 746.978L421.282 734.946L421.298 735.032C421.707 737.201 422.34 740.476 422.421 740.675C424.663 743.364 426.966 744.603 429.267 744.359C433.28 743.933 435.947 739.082 435.974 739.033L435.994 738.995L436.035 739C436.975 739.102 437.67 739.498 438.101 740.179C439.017 741.624 438.458 743.85 438.366 744.186C439.463 745.309 439.954 751.58 439.993 752.086C441.578 753.845 442.331 755.537 442.231 757.113C442.144 758.491 441.414 759.77 440.062 760.917C438.435 762.295 436.34 763.055 434.163 763.055Z" fill="#2F2E43"/>
<path d="M501.365 472.714H425.599L413.521 735.875H440.204L457.443 616.256L526.62 711.951L551.875 688.027L501.365 616.256V472.714Z" fill="#2F2E43"/>
<path d="M481.859 299.767C481.859 299.767 502.734 299.72 494.936 278.661C487.138 257.602 472.617 267.032 472.617 267.032C472.617 267.032 466.499 270.415 467.76 277.965" fill="#2F2E43"/>
<path d="M483.949 309.869C483.949 293.723 471.447 280.634 456.026 280.634C440.604 280.634 428.103 293.723 428.103 309.869C428.103 322.963 436.326 334.045 447.66 337.767L453.058 375.118L480.576 351.108C480.576 351.108 474.631 343.181 471.443 334.241C478.978 329.006 483.949 320.047 483.949 309.869Z" fill="#ED9DA0"/>
<path d="M469.441 334.565C469.441 334.565 473.149 319.681 467.086 312.837C461.036 306.008 460.255 316.633 460.255 316.633L455.89 315.639C455.89 315.639 456.649 305.307 448.109 303.519L453.613 291.199C453.613 291.199 432.541 295.483 431.961 293.346C427.391 276.534 470.986 262.172 483.029 287.821C501.76 327.715 469.441 334.565 469.441 334.565Z" fill="#2F2E43"/>
<path d="M484.727 436.639L497.101 474.818L427.09 473.994L437.529 439.11L484.727 436.639Z" fill="#ED9DA0"/>
<path d="M478.405 339.739L447.358 351.04L418.006 509.687L478.405 517.407L482.809 493.219L487.007 517.407H507.929L485.373 359.644C484.363 352.583 481.993 345.811 478.405 339.739Z" fill="#0051CB"/>
<path d="M469.7 526.146L470.24 500.07L455.698 499.739L455.158 525.816C452.445 528.453 450.654 532.551 450.557 537.196C450.389 545.325 455.461 552.032 461.886 552.178C468.311 552.324 473.656 545.853 473.825 537.725C473.921 533.079 472.301 528.904 469.7 526.146Z" fill="#ED9DA0"/>
<path d="M449.624 395.63V522.028H474.879L482.343 396.697" fill="#2F2E43"/>
<path d="M500.481 529.696C500.038 529.696 499.595 529.68 499.15 529.644C493.843 529.227 489.277 526.248 485.577 520.791C471.654 500.251 443.58 432.277 443.58 412.947C443.58 394.475 447.421 352.139 447.553 351.505L475.909 335.067C489.512 338.411 498.981 351.454 498.425 366.08C497.066 401.816 500.565 483.279 523.46 517.037L523.649 517.316L523.423 517.562C522.95 518.075 512.106 529.696 500.481 529.696Z" fill="#2F2E43"/>
<path d="M338.639 764.152H148.036C123.2 764.152 102.995 742.997 102.995 716.995V202.157C102.995 176.155 123.2 155 148.036 155H338.639C363.475 155 383.68 176.155 383.68 202.157V716.995C383.68 742.997 363.475 764.152 338.639 764.152Z" fill="#2F2E41"/>
<path d="M338.834 751.425H147.842C129.206 751.425 114.045 735.552 114.045 716.041V200.219C114.045 180.708 129.206 164.834 147.842 164.834H338.834C357.469 164.834 372.63 180.708 372.63 200.219V716.041C372.63 735.552 357.469 751.425 338.834 751.425Z" fill="white"/>
<path d="M273.174 198.387H212.396C205.388 198.387 199.688 192.418 199.688 185.082C199.688 177.745 205.388 171.776 212.396 171.776H273.174C280.182 171.776 285.882 177.745 285.882 185.082C285.882 192.418 280.182 198.387 273.174 198.387Z" fill="#2F2E41"/>
<path d="M157.264 299.057H222.807" stroke="#090814" stroke-width="2" stroke-miterlimit="10"/>
<path d="M157.264 325.066H295.137" stroke="#090814" stroke-width="2" stroke-miterlimit="10"/>
<path d="M157.264 313.362H354.758" stroke="#090814" stroke-width="2" stroke-miterlimit="10"/>
<path d="M142.359 317.263C148.533 317.263 153.538 312.023 153.538 305.559C153.538 299.095 148.533 293.855 142.359 293.855C136.185 293.855 131.18 299.095 131.18 305.559C131.18 312.023 136.185 317.263 142.359 317.263Z" fill="#0051CB"/>
<path d="M157.264 376.057H222.807" stroke="#090814" stroke-width="2" stroke-miterlimit="10"/>
<path d="M157.264 402.066H295.137" stroke="#090814" stroke-width="2" stroke-miterlimit="10"/>
<path d="M157.264 390.362H354.758" stroke="#090814" stroke-width="2" stroke-miterlimit="10"/>
<path d="M142.359 394.263C148.533 394.263 153.538 389.023 153.538 382.559C153.538 376.095 148.533 370.855 142.359 370.855C136.185 370.855 131.18 376.095 131.18 382.559C131.18 389.023 136.185 394.263 142.359 394.263Z" fill="#0051CB"/>
<path d="M157.264 453.057H222.807" stroke="#090814" stroke-width="2" stroke-miterlimit="10"/>
<path d="M157.264 479.066H295.137" stroke="#090814" stroke-width="2" stroke-miterlimit="10"/>
<path d="M157.264 467.362H354.758" stroke="#090814" stroke-width="2" stroke-miterlimit="10"/>
<path d="M142.359 471.263C148.533 471.263 153.538 466.023 153.538 459.559C153.538 453.095 148.533 447.855 142.359 447.855C136.185 447.855 131.18 453.095 131.18 459.559C131.18 466.023 136.185 471.263 142.359 471.263Z" fill="#0051CB"/>
<path d="M103.153 751C145.353 751 179.563 715.183 179.563 671C179.563 626.817 145.353 591 103.153 591C60.9535 591 26.7437 626.817 26.7437 671C26.7437 715.183 60.9535 751 103.153 751Z" fill="#0051CB"/>
<path d="M133.76 637.429H72.5457C69.8408 637.432 67.2475 638.558 65.3349 640.561C63.4222 642.563 62.3463 645.278 62.3433 648.11V693.889C62.3463 696.721 63.4222 699.437 65.3348 701.439C67.2475 703.442 69.8407 704.568 72.5457 704.571H133.76C136.465 704.568 139.058 703.442 140.971 701.439C142.884 699.437 143.96 696.721 143.963 693.889V648.11C143.96 645.278 142.884 642.563 140.971 640.561C139.058 638.558 136.465 637.432 133.76 637.429ZM133.76 643.533C134.126 643.534 134.489 643.584 134.843 643.68L103.16 670.142L71.6622 643.627C71.9529 643.564 72.2489 643.532 72.5456 643.533H133.76ZM133.76 698.467H72.5457C71.3864 698.466 70.275 697.983 69.4553 697.125C68.6356 696.267 68.1745 695.103 68.1732 693.889V648.522L101.326 676.43C101.843 676.865 102.485 677.102 103.147 677.104C103.81 677.105 104.453 676.87 104.971 676.438L138.133 648.741V693.889C138.131 695.103 137.67 696.267 136.851 697.125C136.031 697.983 134.919 698.466 133.76 698.467Z" fill="white"/>
</g>
<defs>
<clipPath id="clip0_1679_382">
<rect width="547.97" height="500.014" fill="white" transform="translate(27)"/>
</clipPath>
<clipPath id="clip1_1679_382">
<rect width="607.458" height="609.152" fill="white" transform="translate(0 155)"/>
</clipPath>
</defs>
</svg>
