<svg width="636" height="610" viewBox="0 0 636 610" fill="none" xmlns="http://www.w3.org/2000/svg">
<g clip-path="url(#clip0_1678_261)">
<path d="M499.999 215.948C499.999 217.307 499.842 218.699 499.513 220.091L485.75 278.658C483.799 286.984 475.455 292.14 467.137 290.171L411.98 273.057L409.287 272.225C406.149 274.498 401.768 275.544 397.189 274.737C389.183 273.32 383.64 266.806 384.81 260.176C385.979 253.554 393.416 249.329 401.422 250.737C406.001 251.544 409.765 254.023 411.939 257.227L411.98 257.235L412.12 257.26L460.128 263.198L464.164 214.507C464.93 205.2 472.705 198.043 482.044 198.043C492.175 198.043 499.999 206.32 499.999 215.948Z" fill="#ED9DA0"/>
<path d="M499.999 215.948C499.999 217.307 499.842 218.699 499.513 220.091L488.221 281.128C486.269 289.455 477.926 294.611 469.608 292.642L414.451 277.307L416.922 253.422L458.926 259.187L464.164 214.507C464.93 205.2 472.705 198.043 482.044 198.043C492.175 198.043 499.999 206.32 499.999 215.948Z" fill="#2F2E43"/>
<path d="M0 608.395H49.8972H94.2487H96.0318H135.076H402.463H466.091H636" stroke="#090814" stroke-width="1.5" stroke-miterlimit="10"/>
<path d="M571.633 537.573L558.311 547.395L568.132 560.717L581.455 550.896L571.633 537.573Z" fill="#ED9DA0"/>
<path d="M588.115 564.691L559.796 585.568C557.375 587.353 554.534 588.592 551.58 589.151L544.509 590.491C543.047 590.767 541.532 590.172 540.649 588.975C539.613 587.57 539.643 585.631 540.72 584.258L549.294 573.337L560.579 550.068L560.645 550.128C562.276 551.619 564.753 553.862 564.939 553.972C568.425 554.744 571.101 554.31 572.895 552.684C576.024 549.848 575.393 544.286 575.386 544.23L575.381 544.187L575.418 544.165C576.271 543.664 577.092 543.551 577.859 543.831C579.488 544.426 580.338 546.564 580.46 546.891C582.05 547.114 586.186 551.856 586.519 552.24C588.898 552.671 590.537 553.565 591.388 554.895C592.132 556.059 592.277 557.542 591.817 559.305C591.264 561.425 589.949 563.338 588.115 564.691Z" fill="#2F2E43"/>
<path d="M457.387 576.448H440.836V592.999H457.387V576.448Z" fill="#ED9DA0"/>
<path d="M454.563 608.055H419.38C416.373 608.055 413.351 607.366 410.641 606.064L404.154 602.946C402.813 602.301 401.947 600.923 401.947 599.435C401.947 597.69 403.121 596.146 404.803 595.681L418.184 591.978L441.076 579.946L441.093 580.032C441.521 582.201 442.185 585.476 442.269 585.675C444.617 588.364 447.028 589.603 449.437 589.359C453.638 588.933 456.431 584.082 456.459 584.033L456.48 583.995L456.523 584C457.507 584.102 458.235 584.498 458.686 585.179C459.644 586.624 459.06 588.85 458.964 589.186C460.111 590.309 460.626 596.58 460.666 597.086C462.326 598.845 463.115 600.537 463.01 602.113C462.919 603.491 462.154 604.77 460.739 605.917C459.035 607.295 456.842 608.055 454.563 608.055Z" fill="#2F2E43"/>
<path d="M524.922 317.714H445.596L432.951 580.875H460.887L478.936 461.256L551.364 556.951L577.806 533.027L524.922 461.256V317.714Z" fill="#2F2E43"/>
<path d="M504.5 144.767C504.5 144.767 526.355 144.72 518.191 123.661C510.026 102.602 494.823 112.032 494.823 112.032C494.823 112.032 488.417 115.415 489.738 122.965" fill="#2F2E43"/>
<path d="M506.687 154.869C506.687 138.723 493.598 125.634 477.452 125.634C461.306 125.634 448.217 138.723 448.217 154.869C448.217 167.963 456.827 179.045 468.693 182.767L474.345 220.118L503.157 196.108C503.157 196.108 496.932 188.181 493.594 179.241C501.484 174.006 506.687 165.047 506.687 154.869Z" fill="#ED9DA0"/>
<path d="M491.498 179.565C491.498 179.565 495.381 164.681 489.033 157.837C482.699 151.008 481.881 161.633 481.881 161.633L477.311 160.639C477.311 160.639 478.106 150.307 469.164 148.519L474.926 136.199C474.926 136.199 452.865 140.483 452.257 138.346C447.473 121.534 493.116 107.172 505.725 132.821C525.336 172.715 491.498 179.565 491.498 179.565Z" fill="#2F2E43"/>
<path d="M507.503 281.639L520.458 319.818L447.158 318.994L458.087 284.11L507.503 281.639Z" fill="#ED9DA0"/>
<path d="M500.883 184.739L468.377 196.04L437.647 354.687L500.883 362.407L505.494 338.219L509.89 362.407H531.795L508.179 204.644C507.122 197.583 504.64 190.811 500.883 184.739Z" fill="#0051CB"/>
<path d="M491.77 371.146L492.335 345.07L477.11 344.739L476.544 370.816C473.703 373.453 471.828 377.551 471.727 382.196C471.551 390.325 476.861 397.032 483.588 397.178C490.316 397.324 495.912 390.853 496.088 382.725C496.189 378.079 494.493 373.904 491.77 371.146Z" fill="#ED9DA0"/>
<path d="M470.75 240.63V367.028H497.192L505.007 241.697" fill="#2F2E43"/>
<path d="M523.997 374.696C523.533 374.696 523.069 374.68 522.603 374.644C517.047 374.227 512.266 371.248 508.393 365.791C493.816 345.251 464.422 277.277 464.422 257.947C464.422 239.475 468.443 197.139 468.582 196.505L498.27 180.067C512.513 183.411 522.426 196.454 521.844 211.08C520.421 246.816 524.085 328.279 548.055 362.037L548.253 362.316L548.017 362.562C547.521 363.075 536.168 374.696 523.997 374.696Z" fill="#2F2E43"/>
<path d="M354.551 609.152H154.991C128.989 609.152 107.834 587.997 107.834 561.995V47.1573C107.834 21.1545 128.989 0 154.991 0H354.551C380.553 0 401.708 21.1545 401.708 47.1573V561.995C401.708 587.997 380.553 609.152 354.551 609.152Z" fill="#2F2E41"/>
<path d="M354.754 596.425H154.788C135.277 596.425 119.404 580.552 119.404 561.041V45.2185C119.404 25.708 135.277 9.83447 154.788 9.83447H354.754C374.265 9.83447 390.138 25.708 390.138 45.2185V561.041C390.138 580.552 374.265 596.425 354.754 596.425Z" fill="white"/>
<path d="M286.01 43.387H222.376C215.039 43.387 209.07 37.4185 209.07 30.0817C209.07 22.7449 215.039 16.7764 222.376 16.7764H286.01C293.347 16.7764 299.315 22.7449 299.315 30.0817C299.315 37.4185 293.347 43.387 286.01 43.387Z" fill="#2F2E41"/>
<path d="M164.653 144.057H233.275" stroke="#090814" stroke-width="2" stroke-miterlimit="10"/>
<path d="M164.653 170.066H309.004" stroke="#090814" stroke-width="2" stroke-miterlimit="10"/>
<path d="M164.653 158.362H371.427" stroke="#090814" stroke-width="2" stroke-miterlimit="10"/>
<path d="M149.047 162.263C155.511 162.263 160.752 157.023 160.752 150.559C160.752 144.095 155.511 138.855 149.047 138.855C142.583 138.855 137.343 144.095 137.343 150.559C137.343 157.023 142.583 162.263 149.047 162.263Z" fill="#0051CB"/>
<path d="M164.653 221.057H233.275" stroke="#090814" stroke-width="2" stroke-miterlimit="10"/>
<path d="M164.653 247.066H309.004" stroke="#090814" stroke-width="2" stroke-miterlimit="10"/>
<path d="M164.653 235.362H371.427" stroke="#090814" stroke-width="2" stroke-miterlimit="10"/>
<path d="M149.047 239.263C155.511 239.263 160.752 234.023 160.752 227.559C160.752 221.095 155.511 215.855 149.047 215.855C142.583 215.855 137.343 221.095 137.343 227.559C137.343 234.023 142.583 239.263 149.047 239.263Z" fill="#0051CB"/>
<path d="M164.653 298.057H233.275" stroke="#090814" stroke-width="2" stroke-miterlimit="10"/>
<path d="M164.653 324.066H309.004" stroke="#090814" stroke-width="2" stroke-miterlimit="10"/>
<path d="M164.653 312.362H371.427" stroke="#090814" stroke-width="2" stroke-miterlimit="10"/>
<path d="M149.047 316.263C155.511 316.263 160.752 311.023 160.752 304.559C160.752 298.095 155.511 292.855 149.047 292.855C142.583 292.855 137.343 298.095 137.343 304.559C137.343 311.023 142.583 316.263 149.047 316.263Z" fill="#0051CB"/>
<path d="M108 596C152.183 596 188 560.183 188 516C188 471.817 152.183 436 108 436C63.8172 436 28 471.817 28 516C28 560.183 63.8172 596 108 596Z" fill="#0051CB"/>
<path d="M140.045 482.429H75.9542C73.1222 482.432 70.4071 483.558 68.4046 485.561C66.4021 487.563 65.2757 490.278 65.2725 493.11V538.889C65.2756 541.721 66.4021 544.437 68.4046 546.439C70.4071 548.442 73.1222 549.568 75.9542 549.571H140.045C142.877 549.568 145.592 548.442 147.595 546.439C149.597 544.437 150.724 541.721 150.727 538.889V493.11C150.724 490.278 149.597 487.563 147.595 485.561C145.592 483.558 142.877 482.432 140.045 482.429ZM140.045 488.533C140.428 488.534 140.808 488.584 141.179 488.68L108.007 515.142L75.0293 488.627C75.3336 488.564 75.6435 488.532 75.9542 488.533H140.045ZM140.045 543.467H75.9542C74.7405 543.466 73.5769 542.983 72.7187 542.125C71.8605 541.267 71.3777 540.103 71.3763 538.889V493.522L106.087 521.43C106.628 521.865 107.3 522.102 107.994 522.104C108.687 522.105 109.361 521.87 109.903 521.438L144.623 493.741V538.889C144.622 540.103 144.139 541.267 143.281 542.125C142.422 542.983 141.259 543.466 140.045 543.467Z" fill="white"/>
</g>
<defs>
<clipPath id="clip0_1678_261">
<rect width="636" height="609.152" fill="white"/>
</clipPath>
</defs>
</svg>
