<svg width="141" height="142" viewBox="0 0 141 142" fill="none" xmlns="http://www.w3.org/2000/svg">
<path d="M70.5 141.234C109.289 141.234 140.734 109.789 140.734 71C140.734 32.2106 109.289 0.765625 70.5 0.765625C31.7106 0.765625 0.265625 32.2106 0.265625 71C0.265625 109.789 31.7106 141.234 70.5 141.234Z" fill="#E6ECFF"/>
<path d="M126.862 112.857C120.312 104.087 111.806 96.9663 102.021 92.06C92.2364 87.1536 81.4421 84.5972 70.4962 84.5938C59.5502 84.5903 48.7543 87.14 38.9665 92.0402C29.1786 96.9404 20.6686 104.056 14.1128 112.822C20.6353 121.632 29.1314 128.791 38.9198 133.725C48.7083 138.659 59.5167 141.231 70.4784 141.234C81.4401 141.238 92.2502 138.673 102.042 133.745C111.833 128.817 120.334 121.663 126.862 112.857Z" fill="#4294FF"/>
<path d="M70.5 75.5312C85.5152 75.5312 97.6875 63.359 97.6875 48.3438C97.6875 33.3285 85.5152 21.1562 70.5 21.1562C55.4848 21.1562 43.3125 33.3285 43.3125 48.3438C43.3125 63.359 55.4848 75.5312 70.5 75.5312Z" fill="#4294FF"/>
</svg>
