<svg width="500" height="370" viewBox="0 0 500 370" fill="none" xmlns="http://www.w3.org/2000/svg">
<path d="M449.901 344.494H416.779V344.744H449.901V344.494Z" fill="#EBEBEB"/>
<path d="M331.22 347.208H322.527V347.458H331.22V347.208Z" fill="#EBEBEB"/>
<path d="M415.778 335.208H396.586V335.458H415.778V335.208Z" fill="#EBEBEB"/>
<path d="M95.652 336.888H52.459V337.138H95.652V336.888Z" fill="#EBEBEB"/>
<path d="M110.889 336.888H104.556V337.138H110.889V336.888Z" fill="#EBEBEB"/>
<path d="M225.147 341.111H131.471V341.361H225.147V341.111Z" fill="#EBEBEB"/>
<path d="M237.014 283.8H43.915C40.768 283.8 38.207 281.239 38.207 278.092V6.66003C38.207 3.51303 40.768 0.952026 43.915 0.952026H237.014C240.16 0.952026 242.721 3.51303 242.721 6.66003V278.092C242.721 281.239 240.16 283.8 237.014 283.8ZM43.915 1.20303C40.905 1.20303 38.457 3.65103 38.457 6.66103V278.093C38.457 281.103 40.905 283.551 43.915 283.551H237.014C240.023 283.551 242.471 281.103 242.471 278.093V6.66003C242.471 3.65103 240.023 1.20203 237.014 1.20203L43.915 1.20303Z" fill="#EBEBEB"/>
<path d="M453.31 283.8H260.212C257.065 283.8 254.505 281.239 254.505 278.092V6.66003C254.505 3.51303 257.066 0.952026 260.212 0.952026H453.31C456.458 0.952026 459.018 3.51303 459.018 6.66003V278.092C459.019 281.239 456.458 283.8 453.31 283.8ZM260.212 1.20303C257.203 1.20303 254.755 3.65103 254.755 6.66103V278.093C254.755 281.103 257.203 283.551 260.212 283.551H453.31C456.32 283.551 458.768 281.103 458.768 278.093V6.66003C458.768 3.65103 456.32 1.20203 453.31 1.20203L260.212 1.20303Z" fill="#EBEBEB"/>
<path d="M500 328.398H0V328.648H500V328.398Z" fill="#EBEBEB"/>
<path d="M140.572 321.939V244.806H171.906V321.939C171.906 325.512 168.999 328.418 165.426 328.418H147.052C143.478 328.418 140.572 325.512 140.572 321.939ZM144.572 248.806V321.939C144.572 323.306 145.684 324.418 147.051 324.418H165.425C166.793 324.418 167.905 323.306 167.905 321.939V248.806H144.572Z" fill="#EBEBEB"/>
<path d="M70.895 321.939V244.806H102.228V321.939C102.228 325.512 99.321 328.418 95.749 328.418H77.374C73.802 328.418 70.895 325.512 70.895 321.939ZM74.895 248.806V321.939C74.895 323.306 76.007 324.418 77.374 324.418H95.748C97.115 324.418 98.227 323.306 98.227 321.939V248.806H74.895Z" fill="#EBEBEB"/>
<path d="M69.8097 250.966H146.179V222.279H69.8097V250.966Z" fill="#F5F5F5"/>
<path d="M141.199 250.966H172.502V222.279H141.199V250.966Z" fill="#E6E6E6"/>
<path d="M65.9314 224.07H140.524V215.706H65.9314V224.07Z" fill="#EBEBEB"/>
<path d="M139.368 224.07H176.38V215.706H139.368V224.07Z" fill="#E6E6E6"/>
<path d="M75.9503 245.351H135.072V228.851H75.9503V245.351Z" fill="#EBEBEB"/>
<path d="M105.511 240.384C107.324 240.384 108.794 238.914 108.794 237.101C108.794 235.288 107.324 233.818 105.511 233.818C103.698 233.818 102.228 235.288 102.228 237.101C102.228 238.914 103.698 240.384 105.511 240.384Z" fill="#FAFAFA"/>
<path d="M405.863 328.419H431.223V115.414H405.863V328.419Z" fill="#E6E6E6"/>
<path d="M337.445 328.419H408.632V115.414H337.445V328.419Z" fill="#F0F0F0"/>
<path d="M344.697 179.348H401.38V122.665H344.697V179.348Z" fill="#FAFAFA"/>
<path d="M357.704 147.014H388.374C389.234 147.014 389.931 146.317 389.931 145.457C389.931 144.597 389.234 143.9 388.374 143.9H357.704C356.844 143.9 356.147 144.597 356.147 145.457C356.147 146.317 356.844 147.014 357.704 147.014Z" fill="#E0E0E0"/>
<path d="M357.704 153.244H388.374C389.234 153.244 389.931 152.547 389.931 151.687C389.931 150.827 389.234 150.13 388.374 150.13H357.704C356.844 150.13 356.147 150.827 356.147 151.687C356.147 152.546 356.844 153.244 357.704 153.244Z" fill="#E0E0E0"/>
<path d="M357.704 159.474H388.374C389.234 159.474 389.931 158.777 389.931 157.917C389.931 157.057 389.234 156.36 388.374 156.36H357.704C356.844 156.36 356.147 157.057 356.147 157.917C356.147 158.776 356.844 159.474 357.704 159.474Z" fill="#E0E0E0"/>
<path d="M369.868 125.852H376.21C378.63 125.852 380.894 124.66 382.264 122.664H363.814C365.183 124.66 367.448 125.852 369.868 125.852Z" fill="#E0E0E0"/>
<path d="M344.697 241.458H401.38V184.775H344.697V241.458Z" fill="#FAFAFA"/>
<path d="M357.704 209.124H388.374C389.234 209.124 389.931 208.427 389.931 207.567C389.931 206.707 389.234 206.01 388.374 206.01H357.704C356.844 206.01 356.147 206.707 356.147 207.567C356.147 208.427 356.844 209.124 357.704 209.124Z" fill="#E0E0E0"/>
<path d="M357.704 215.354H388.374C389.234 215.354 389.931 214.657 389.931 213.797C389.931 212.937 389.234 212.24 388.374 212.24H357.704C356.844 212.24 356.147 212.937 356.147 213.797C356.147 214.656 356.844 215.354 357.704 215.354Z" fill="#E0E0E0"/>
<path d="M357.704 221.583H388.374C389.234 221.583 389.931 220.886 389.931 220.026C389.931 219.166 389.234 218.469 388.374 218.469H357.704C356.844 218.469 356.147 219.166 356.147 220.026C356.147 220.886 356.844 221.583 357.704 221.583Z" fill="#E0E0E0"/>
<path d="M344.697 303.568H401.38V246.885H344.697V303.568Z" fill="#FAFAFA"/>
<path d="M357.704 271.233H388.374C389.234 271.233 389.931 270.536 389.931 269.676C389.931 268.816 389.234 268.119 388.374 268.119H357.704C356.844 268.119 356.147 268.816 356.147 269.676C356.147 270.536 356.844 271.233 357.704 271.233Z" fill="#E0E0E0"/>
<path d="M357.704 277.463H388.374C389.234 277.463 389.931 276.766 389.931 275.906C389.931 275.046 389.234 274.348 388.374 274.348H357.704C356.844 274.348 356.147 275.045 356.147 275.906C356.147 276.766 356.844 277.463 357.704 277.463Z" fill="#E0E0E0"/>
<path d="M357.704 283.693H388.374C389.234 283.693 389.931 282.996 389.931 282.135C389.931 281.275 389.234 280.578 388.374 280.578H357.704C356.844 280.578 356.147 281.275 356.147 282.135C356.147 282.996 356.844 283.693 357.704 283.693Z" fill="#E0E0E0"/>
<path d="M369.868 187.99H376.21C378.63 187.99 380.894 186.798 382.264 184.802H363.814C365.183 186.798 367.448 187.99 369.868 187.99Z" fill="#E0E0E0"/>
<path d="M369.868 250.072H376.21C378.63 250.072 380.894 248.88 382.264 246.884H363.814C365.183 248.879 367.448 250.072 369.868 250.072Z" fill="#E0E0E0"/>
<path d="M245.178 369.714C352.26 369.714 439.067 364.645 439.067 358.391C439.067 352.137 352.26 347.068 245.178 347.068C138.096 347.068 51.2891 352.137 51.2891 358.391C51.2891 364.645 138.096 369.714 245.178 369.714Z" fill="#F5F5F5"/>
<path d="M162.516 200.665H160.853C160.853 188.018 150.564 177.729 137.917 177.729C125.27 177.729 114.981 188.018 114.981 200.665H113.318C113.318 187.101 124.353 176.065 137.918 176.065C151.483 176.065 162.516 187.101 162.516 200.665Z" fill="#263238"/>
<g opacity="0.4">
<path d="M162.516 200.665H160.853C160.853 188.018 150.564 177.729 137.917 177.729C125.27 177.729 114.981 188.018 114.981 200.665H113.318C113.318 187.101 124.353 176.065 137.918 176.065C151.483 176.065 162.516 187.101 162.516 200.665Z" fill="white"/>
</g>
<path d="M141.022 173.792H134.812V180.002H141.022V173.792Z" fill="#263238"/>
<path d="M117.254 196.673H111.044V202.883H117.254V196.673Z" fill="#263238"/>
<path d="M164.79 196.673H158.58V202.883H164.79V196.673Z" fill="#263238"/>
<path d="M148.312 196.109L138.581 182.451V193.76C139.637 194.052 140.416 195.01 140.416 196.159C140.416 197.539 139.297 198.658 137.917 198.658C136.537 198.658 135.418 197.539 135.418 196.159C135.418 195.01 136.198 194.053 137.253 193.76V182.452L127.522 196.109C125.73 198.624 126.323 202.117 128.844 203.9L132.464 206.46V210.798H143.369V206.46L146.989 203.9C149.511 202.117 150.104 198.624 148.312 196.109Z" fill="#0051CB"/>
<path opacity="0.5" d="M148.312 196.109L138.581 182.451V193.76C139.637 194.052 140.416 195.01 140.416 196.159C140.416 197.539 139.297 198.658 137.917 198.658C136.537 198.658 135.418 197.539 135.418 196.159C135.418 195.01 136.198 194.053 137.253 193.76V182.452L127.522 196.109C125.73 198.624 126.323 202.117 128.844 203.9L132.464 206.46V210.798H143.369V206.46L146.989 203.9C149.511 202.117 150.104 198.624 148.312 196.109Z" fill="white"/>
<path d="M93.762 163.398H84.457V170.61H93.762V163.398Z" fill="#0051CB"/>
<path opacity="0.3" d="M93.762 163.398H84.457V170.61H93.762V163.398Z" fill="white"/>
<path d="M104.485 165.336H73.7351C71.5201 165.336 69.7241 163.54 69.7241 161.325V141.121C69.7241 138.906 71.5201 137.11 73.7351 137.11H104.485C106.7 137.11 108.496 138.906 108.496 141.121V161.325C108.496 163.54 106.7 165.336 104.485 165.336Z" fill="#0051CB"/>
<path opacity="0.5" d="M104.485 165.336H73.7351C71.5201 165.336 69.7241 163.54 69.7241 161.325V141.121C69.7241 138.906 71.5201 137.11 73.7351 137.11H104.485C106.7 137.11 108.496 138.906 108.496 141.121V161.325C108.496 163.54 106.7 165.336 104.485 165.336Z" fill="white"/>
<path opacity="0.2" d="M104.763 159.753C105.282 159.753 105.704 159.331 105.704 158.813V140.843C105.704 140.324 105.282 139.902 104.763 139.902H73.4561C72.9371 139.902 72.5151 140.324 72.5151 140.843V158.813C72.5151 159.332 72.9371 159.753 73.4561 159.753H104.763Z" fill="black"/>
<path d="M96.713 173.191H81.507C80.503 173.191 79.688 172.377 79.688 171.372V171.241C79.688 170.237 80.502 169.422 81.507 169.422H96.713C97.717 169.422 98.532 170.236 98.532 171.241V171.372C98.531 172.377 97.717 173.191 96.713 173.191Z" fill="#0051CB"/>
<path opacity="0.5" d="M96.713 173.191H81.507C80.503 173.191 79.688 172.377 79.688 171.372V171.241C79.688 170.237 80.502 169.422 81.507 169.422H96.713C97.717 169.422 98.532 170.236 98.532 171.241V171.372C98.531 172.377 97.717 173.191 96.713 173.191Z" fill="white"/>
<path d="M348.411 221.915H136.881V226.096H348.411V221.915Z" fill="#263238"/>
<path opacity="0.3" d="M348.411 221.915H136.881V226.096H348.411V221.915Z" fill="white"/>
<path opacity="0.2" d="M348.412 221.915H233.068V226.096H348.412V221.915Z" fill="black"/>
<path d="M149.502 226.096H142.878V360.657H149.502V226.096Z" fill="#263238"/>
<path opacity="0.5" d="M149.502 226.096H142.878V360.657H149.502V226.096Z" fill="white"/>
<path opacity="0.2" d="M149.502 226.096H142.878V234.894H149.502V226.096Z" fill="black"/>
<path d="M226.902 226.096H220.279V360.657H226.902V226.096Z" fill="#263238"/>
<path opacity="0.5" d="M226.902 226.096H220.279V360.657H226.902V226.096Z" fill="white"/>
<path opacity="0.2" d="M226.902 226.096H220.279V234.894H226.902V226.096Z" fill="black"/>
<path d="M264.985 226.096H258.362V360.657H264.985V226.096Z" fill="#263238"/>
<path opacity="0.5" d="M264.985 226.096H258.362V360.657H264.985V226.096Z" fill="white"/>
<path opacity="0.2" d="M264.985 226.096H258.362V234.894H264.985V226.096Z" fill="black"/>
<path d="M342.386 226.096H335.763V360.657H342.386V226.096Z" fill="#263238"/>
<path opacity="0.5" d="M342.386 226.096H335.763V360.657H342.386V226.096Z" fill="white"/>
<path opacity="0.2" d="M342.387 226.096H335.763V234.894H342.387V226.096Z" fill="black"/>
<path d="M353.826 217.735H131.467V221.916H353.826V217.735Z" fill="#0051CB"/>
<path opacity="0.3" d="M353.826 217.735H233.254V221.916H353.826V217.735Z" fill="black"/>
<path d="M164.93 327.054L164.153 327.002C165.716 303.827 162.268 296.297 159.1 294.062C157.24 292.748 155.595 293.438 155.579 293.446L155.269 292.732C155.353 292.697 157.334 291.865 159.548 293.426C162.88 295.777 166.517 303.518 164.93 327.054Z" fill="#0051CB"/>
<path d="M160.527 324.709C159.762 304.994 163.179 297.639 166.181 294.941C168.054 293.257 169.677 293.474 169.746 293.481L169.637 294.252C169.583 294.243 168.261 294.095 166.659 295.558C163.802 298.169 160.554 305.34 161.304 324.678L160.527 324.709Z" fill="#0051CB"/>
<path d="M163.85 324.72L163.073 324.667C163.875 312.824 162.413 305.776 158.845 304.286C154.189 302.341 147.233 310.129 147.164 310.207L146.58 309.692C146.879 309.353 153.974 301.41 159.144 303.568C163.105 305.221 164.688 312.338 163.85 324.72Z" fill="#0051CB"/>
<path d="M161.888 325.473C161.881 318.192 163.393 313.703 166.383 312.128C169.75 310.356 173.637 312.978 173.801 313.091L173.361 313.732C173.325 313.707 169.691 311.259 166.743 312.819C164.031 314.25 162.66 318.508 162.667 325.472L161.888 325.473Z" fill="#0051CB"/>
<g opacity="0.2">
<path d="M164.93 327.054L164.153 327.002C165.716 303.827 162.268 296.297 159.1 294.062C157.24 292.748 155.595 293.438 155.579 293.446L155.269 292.732C155.353 292.697 157.334 291.865 159.548 293.426C162.88 295.777 166.517 303.518 164.93 327.054Z" fill="black"/>
<path d="M160.527 324.709C159.762 304.994 163.179 297.639 166.181 294.941C168.054 293.257 169.677 293.474 169.746 293.481L169.637 294.252C169.583 294.243 168.261 294.095 166.659 295.558C163.802 298.169 160.554 305.34 161.304 324.678L160.527 324.709Z" fill="black"/>
<path d="M163.85 324.72L163.073 324.667C163.875 312.824 162.413 305.776 158.845 304.286C154.189 302.341 147.233 310.129 147.164 310.207L146.58 309.692C146.879 309.353 153.974 301.41 159.144 303.568C163.105 305.221 164.688 312.338 163.85 324.72Z" fill="black"/>
<path d="M161.888 325.473C161.881 318.192 163.393 313.703 166.383 312.128C169.75 310.356 173.637 312.978 173.801 313.091L173.361 313.732C173.325 313.707 169.691 311.259 166.743 312.819C164.031 314.25 162.66 318.508 162.667 325.472L161.888 325.473Z" fill="black"/>
</g>
<path d="M144.296 323.385L148.965 361.018H177.535L182.204 323.385H144.296Z" fill="#263238"/>
<path d="M156.973 292.937C156.973 292.937 164.859 279.687 150.982 279.493C137.105 279.299 126.634 293.792 126.634 293.792C126.634 293.792 145.502 311.923 158.293 307.567C171.085 303.211 156.973 292.937 156.973 292.937Z" fill="#0051CB"/>
<path opacity="0.4" d="M156.973 292.937C156.973 292.937 164.859 279.687 150.982 279.493C137.105 279.299 126.634 293.792 126.634 293.792C126.634 293.792 145.502 311.923 158.293 307.567C171.085 303.211 156.973 292.937 156.973 292.937Z" fill="white"/>
<path opacity="0.5" d="M153.854 292.841C153.854 292.841 155.004 282.462 152.938 282.869C150.872 283.277 151.789 291.169 151.789 291.169C151.789 291.169 143.808 282.782 142.423 284.152C141.038 285.522 149.449 291.937 149.449 291.937C149.449 291.937 131.228 290.904 131.209 292.992C131.191 295.08 149.6 293.717 149.6 293.717C149.6 293.717 141.981 299.6 142.782 301.157C143.584 302.713 152.38 294.228 152.38 294.228C152.38 294.228 155.768 303.804 157.807 303.301C159.845 302.799 153.854 292.841 153.854 292.841Z" fill="white"/>
<path d="M168.398 294.148C168.398 294.148 159.188 285.854 171.052 283.489C182.915 281.124 194.779 291.168 194.779 291.168C194.779 291.168 182.204 308.819 170.367 307.335C158.529 305.852 168.398 294.148 168.398 294.148Z" fill="#0051CB"/>
<path opacity="0.3" d="M168.398 294.148C168.398 294.148 159.188 285.854 171.052 283.489C182.915 281.124 194.779 291.168 194.779 291.168C194.779 291.168 182.204 308.819 170.367 307.335C158.529 305.852 168.398 294.148 168.398 294.148Z" fill="white"/>
<path opacity="0.5" d="M171.784 293.618C171.784 293.618 167.522 286.352 169.587 286.759C171.653 287.167 173.849 291.946 173.849 291.946C173.849 291.946 178.718 285.116 180.102 286.485C181.487 287.855 176.188 292.713 176.188 292.713C176.188 292.713 190.519 290.123 190.537 292.212C190.556 294.3 176.037 294.494 176.037 294.494C176.037 294.494 182.878 299.599 182.077 301.156C181.275 302.712 173.258 295.005 173.258 295.005C173.258 295.005 169.87 304.581 167.831 304.078C165.792 303.576 171.784 293.618 171.784 293.618Z" fill="white"/>
<path d="M172.375 312.769C172.375 312.769 156.784 316.526 166.842 326.088C176.901 335.65 194.428 332.114 194.428 332.114C194.428 332.114 192.879 305.993 180.529 300.509C168.179 295.025 172.375 312.769 172.375 312.769Z" fill="#0051CB"/>
<path opacity="0.5" d="M175.413 314.066C175.413 314.066 164.799 320.152 166.604 321.237C168.408 322.322 175.821 316.691 175.821 316.691C175.821 316.691 177.148 328.668 179.094 328.583C181.04 328.498 178.071 317.694 178.071 317.694C178.071 317.694 189.589 331.099 191.005 329.564C192.421 328.029 179.155 316.273 179.155 316.273C179.155 316.273 186.94 316.454 187.391 314.762C187.842 313.07 177.439 314.027 177.439 314.027C177.439 314.027 180.7 305.125 178.852 304.129C177.004 303.133 175.413 314.066 175.413 314.066Z" fill="white"/>
<path d="M148.161 309.001C148.161 309.001 139.805 295.189 133.673 307.639C127.541 320.089 136.137 335.768 136.137 335.768C136.137 335.768 160.612 326.509 162.168 313.086C163.724 299.663 148.161 309.001 148.161 309.001Z" fill="#0051CB"/>
<path opacity="0.5" d="M146.313 310.946C146.313 310.946 137.948 303.885 137.364 305.908C136.78 307.931 143.881 312.016 143.881 312.016C143.881 312.016 134.154 315.984 134.738 317.842C135.322 319.7 143.492 314.448 143.492 314.448C143.492 314.448 135.613 330.886 137.461 331.859C139.309 332.832 145.144 315.129 145.144 315.129C145.144 315.129 149.912 323.397 151.662 323.397C153.413 323.397 146.871 312.892 146.871 312.892C146.871 312.892 156.915 313.67 157.401 311.628C157.888 309.585 146.313 310.946 146.313 310.946Z" fill="white"/>
<path d="M207.686 137.023H203.112C199.155 137.023 196.227 140.231 196.574 144.188L200.483 188.87C200.829 192.827 204.318 196.035 208.275 196.035H212.849L207.686 137.023Z" fill="#263238"/>
<path d="M251.575 213.742H237.859L240.359 185.157H254.076L251.575 213.742Z" fill="#263238"/>
<path d="M286.016 196.036H211.4C207.443 196.036 203.954 192.828 203.608 188.871L199.699 144.189C199.353 140.232 202.28 137.024 206.237 137.024H280.852C284.809 137.024 288.298 140.232 288.644 144.189L292.553 188.871C292.9 192.828 289.973 196.036 286.016 196.036Z" fill="#0051CB"/>
<path opacity="0.7" d="M281.105 139.909H206.49C204.13 139.909 202.378 141.829 202.584 144.189L206.493 188.871C206.699 191.231 208.788 193.15 211.147 193.15H285.762C288.122 193.15 289.874 191.23 289.668 188.871L285.759 144.189C285.553 141.829 283.465 139.909 281.105 139.909Z" fill="white"/>
<path opacity="0.4" d="M240.805 198.295L239.454 213.742H251.575L252.926 198.295H240.805Z" fill="white"/>
<path d="M269.82 217.733H246.03C244.459 217.733 243.186 216.46 243.186 214.889C243.186 213.318 244.459 212.045 246.03 212.045H269.82C271.391 212.045 272.664 213.318 272.664 214.889C272.664 216.459 271.39 217.733 269.82 217.733Z" fill="#0051CB"/>
<path d="M247.5 217.733H223.71C222.139 217.733 220.866 216.46 220.866 214.889C220.866 213.318 222.139 212.045 223.71 212.045H247.5C249.071 212.045 250.344 213.318 250.344 214.889C250.344 216.459 249.071 217.733 247.5 217.733Z" fill="#0051CB"/>
<g opacity="0.5">
<path d="M247.5 217.733H223.71C222.139 217.733 220.866 216.46 220.866 214.889C220.866 213.318 222.139 212.045 223.71 212.045H247.5C249.071 212.045 250.344 213.318 250.344 214.889C250.344 216.459 249.071 217.733 247.5 217.733Z" fill="white"/>
</g>
<path opacity="0.8" d="M273.416 182.054H257.195C252.513 182.054 248.384 178.258 247.975 173.576L246.556 157.355C246.146 152.673 249.61 148.877 254.293 148.877H270.514C275.196 148.877 279.324 152.673 279.734 157.355L281.153 173.576C281.562 178.258 278.098 182.054 273.416 182.054Z" fill="white"/>
<path d="M238.421 182.054H222.2C217.518 182.054 213.39 178.258 212.98 173.576L211.561 157.355C211.151 152.673 214.615 148.877 219.298 148.877H235.519C240.201 148.877 244.329 152.673 244.739 157.355L246.158 173.576C246.567 178.258 243.103 182.054 238.421 182.054Z" fill="#263238"/>
<path d="M318.59 218.449H300.771C299.594 218.449 298.641 217.495 298.641 216.319C298.641 215.142 299.595 214.189 300.771 214.189H318.59C319.766 214.189 320.72 215.143 320.72 216.319C320.72 217.496 319.766 218.449 318.59 218.449Z" fill="#0051CB"/>
<path opacity="0.3" d="M318.59 218.449H300.771C299.594 218.449 298.641 217.495 298.641 216.319C298.641 215.142 299.595 214.189 300.771 214.189H318.59C319.766 214.189 320.72 215.143 320.72 216.319C320.72 217.496 319.766 218.449 318.59 218.449Z" fill="white"/>
<path d="M301.872 218.449H284.053C282.877 218.449 281.923 217.495 281.923 216.319C281.923 215.142 282.877 214.189 284.053 214.189H301.872C303.049 214.189 304.002 215.143 304.002 216.319C304.002 217.496 303.049 218.449 301.872 218.449Z" fill="#0051CB"/>
<path opacity="0.5" d="M301.872 218.449H284.053C282.877 218.449 281.923 217.495 281.923 216.319C281.923 215.142 282.877 214.189 284.053 214.189H301.872C303.049 214.189 304.002 215.143 304.002 216.319C304.002 217.496 303.049 218.449 301.872 218.449Z" fill="white"/>
<path d="M281.142 218.449C280.424 218.449 279.855 217.814 279.942 217.102C280.353 213.765 282.398 212.143 286.17 212.143C289.85 212.143 293.967 213.686 295.004 216.859C295.259 217.64 294.68 218.449 293.859 218.449H281.142Z" fill="#263238"/>
<path opacity="0.5" d="M281.142 218.449C280.424 218.449 279.855 217.814 279.942 217.102C280.353 213.765 282.398 212.143 286.17 212.143C289.85 212.143 293.967 213.686 295.004 216.859C295.259 217.64 294.68 218.449 293.859 218.449H281.142Z" fill="white"/>
<path d="M272.879 159.374L274.419 154.283L269.502 156.268L272.879 159.374Z" fill="#263238"/>
<path d="M255.587 171.304L253.926 173.125C253.318 173.791 253.413 174.87 254.137 175.536L255.103 176.424C255.827 177.09 256.906 177.09 257.514 176.424L259.175 174.603L255.587 171.304Z" fill="#263238"/>
<path d="M259.244 163.639C260.013 164.487 261.115 165.58 262.676 167.015C269.192 173.007 275.148 177.125 275.979 176.214C276.81 175.303 272.202 169.707 265.686 163.716C264.125 162.281 262.945 161.274 262.036 160.58L259.244 163.639Z" fill="#263238"/>
<path d="M262.272 167.456C261.637 166.872 261.072 166.339 260.566 165.848L255.991 170.862L259.579 174.161L264.153 169.148C263.53 168.6 262.902 168.036 262.272 167.456Z" fill="#263238"/>
<path d="M266.09 163.273C266.72 163.852 267.335 164.431 267.934 165.006L272.582 159.913L268.994 156.614L264.346 161.708C264.877 162.171 265.455 162.689 266.09 163.273Z" fill="#263238"/>
<path d="M257.684 161.3C257.757 161.704 258.069 162.269 258.81 163.145L261.508 160.189C260.574 159.525 259.986 159.262 259.579 159.225L257.684 161.3Z" fill="#263238"/>
<path d="M259.458 158.386C259.325 158.02 259.102 157.642 258.775 157.265C257.465 155.754 252.061 154.867 252.061 154.867C252.061 154.867 254.28 159.157 255.219 160.24C255.695 160.789 256.266 161.119 256.861 161.231L259.458 158.386Z" fill="#263238"/>
<path d="M237.669 159.374L239.208 154.283L234.292 156.268L237.669 159.374Z" fill="white"/>
<path d="M220.377 171.304L218.716 173.125C218.108 173.791 218.203 174.87 218.927 175.536L219.893 176.424C220.617 177.09 221.696 177.09 222.304 176.424L223.965 174.603L220.377 171.304Z" fill="white"/>
<path d="M224.033 163.639C224.802 164.487 225.904 165.58 227.465 167.015C233.981 173.007 239.937 177.125 240.768 176.214C241.599 175.303 236.991 169.707 230.475 163.716C228.914 162.281 227.734 161.274 226.825 160.58L224.033 163.639Z" fill="white"/>
<path d="M227.062 167.456C226.427 166.872 225.862 166.339 225.356 165.848L220.781 170.862L224.369 174.161L228.943 169.148C228.32 168.6 227.691 168.036 227.062 167.456Z" fill="white"/>
<path d="M230.88 163.273C231.51 163.852 232.125 164.431 232.724 165.006L237.372 159.913L233.784 156.614L229.136 161.708C229.666 162.171 230.244 162.689 230.88 163.273Z" fill="white"/>
<path d="M222.474 161.3C222.547 161.704 222.859 162.269 223.6 163.145L226.298 160.189C225.364 159.525 224.776 159.262 224.369 159.225L222.474 161.3Z" fill="white"/>
<path d="M224.248 158.386C224.115 158.02 223.892 157.642 223.565 157.265C222.255 155.754 216.851 154.867 216.851 154.867C216.851 154.867 219.07 159.157 220.009 160.24C220.485 160.789 221.056 161.119 221.651 161.231L224.248 158.386Z" fill="white"/>
<path d="M345.004 209.605L325.528 212.267L317.63 208.051L309.544 211.28L308.457 215.855L315.021 215.425L320.051 217.513L325.575 217.286L346.926 218.563L345.004 209.605Z" fill="#B97964"/>
<path d="M344.017 219.287C346.281 219.312 348.125 219.157 349.103 218.713C353.391 216.766 364.345 200.292 369.373 191.775C371.449 188.259 372.558 181.326 366.311 173.902C365.799 173.293 364.866 173.274 364.348 173.878C361.629 177.047 357.428 183.375 344.67 206.592L341.897 207.182L344.017 219.287Z" fill="#0051CB"/>
<path d="M340.116 207.142L343.663 206.291C343.663 206.291 343.734 213.03 346.926 219.839H342.102C342.102 219.839 339.265 214.378 340.116 207.142Z" fill="#0051CB"/>
<path opacity="0.4" d="M340.116 207.142L343.663 206.291C343.663 206.291 343.734 213.03 346.926 219.839H342.102C342.102 219.839 339.265 214.378 340.116 207.142Z" fill="white"/>
<path d="M337.481 149.873L334.57 154.448C334.57 154.448 336.087 155.567 338.211 154.805L337.481 149.873Z" fill="#A24E3F"/>
<path d="M335.727 148.519C335.721 149.109 336.021 149.593 336.408 149.598C336.795 149.603 337.14 149.104 337.13 148.53C337.12 147.956 336.836 147.456 336.448 147.457C336.06 147.459 335.739 147.93 335.727 148.519Z" fill="#1A2E35"/>
<path d="M338.567 146.561C338.464 146.572 338.361 146.532 338.292 146.454C337.805 145.842 337.054 145.502 336.273 145.54C336.105 145.561 335.952 145.443 335.929 145.276C335.911 145.107 336.03 144.954 336.199 144.93C337.187 144.86 338.146 145.279 338.765 146.052C338.876 146.182 338.861 146.378 338.731 146.489L338.73 146.49C338.683 146.528 338.627 146.553 338.567 146.561Z" fill="#1A2E35"/>
<path d="M358.507 145.549C358.767 153.396 359.047 156.718 355.486 161.095C349.85 165.742 340.42 166.289 337.822 158.671C335.481 151.818 335.449 140.164 342.796 136.291C348.034 133.533 354.516 135.542 357.274 140.78C358.05 142.253 358.472 143.885 358.507 145.549Z" fill="#B97964"/>
<path opacity="0.2" d="M347.486 164.436L347.429 164.051C347.303 163.202 346.463 162.653 345.635 162.88L342.445 163.754C343.978 164.398 345.711 164.605 347.486 164.436Z" fill="black"/>
<path d="M347.193 162.454L348.913 174.109L358.646 172.094L355.529 160.165L347.193 162.454Z" fill="#B97964"/>
<path d="M346.154 152.472L341.45 149.782C341.45 149.782 342.235 145.183 342.189 143.636C342.159 142.595 342.17 140.289 341.45 139.537C339.969 137.991 336.372 138.395 337.13 132.145C337.888 125.895 341.719 132.145 341.719 132.145C341.719 132.145 342.913 128.74 345.004 129.367C347.095 129.994 348.439 132.01 348.439 132.01C348.439 132.01 365.844 133.757 361.207 143.434C361.207 143.434 366.139 148.884 356.035 162.096C356.035 162.096 355.156 159.707 350.859 162.096L346.154 152.472Z" fill="#263238"/>
<path d="M359.944 144.923C359.944 144.923 367.036 141.07 366.05 138.472C365.064 135.873 359.944 144.923 359.944 144.923Z" fill="#263238"/>
<path d="M342.301 150.12C342.019 151.699 342.378 153.325 343.299 154.639C344.533 156.373 346.498 155.6 347.284 153.749C347.996 152.072 348.197 149.164 346.411 148.08C344.624 146.995 342.667 148.192 342.301 150.12Z" fill="#B97964"/>
<path d="M340.755 137.839C340.755 137.839 337.537 142.193 334.311 137.839C331.086 133.485 338.419 139.55 340.755 137.839Z" fill="#263238"/>
<path d="M361.809 172.237L359.991 166.707C359.796 166.112 359.27 165.677 358.564 165.507C356.479 165.004 351.825 164.301 344.036 166.401C342.251 166.882 340.44 168.361 340.985 169.056L343.479 172.238H361.809V172.237Z" fill="#0051CB"/>
<path opacity="0.1" d="M360.659 168.736C353.934 167.182 346.712 168.401 341.466 169.667L343.48 172.237H361.809L360.659 168.736Z" fill="black"/>
<path d="M335.307 329.478L339.211 348.394L346.913 347.254L345.062 328.837L335.307 329.478Z" fill="#B97964"/>
<path opacity="0.2" d="M346.281 340.971L345.062 328.837L335.307 329.478L337.747 341.302L346.281 340.971Z" fill="black"/>
<path d="M335.745 349.585C334.748 349.705 333.695 349.646 333.313 349.257C333.112 349.027 333.078 348.695 333.228 348.429C333.335 348.192 333.531 348.007 333.773 347.912C335.068 347.383 338.058 348.645 338.19 348.701C338.264 348.733 338.311 348.807 338.306 348.888C338.3 348.968 338.247 349.036 338.171 349.062C337.379 349.307 336.567 349.482 335.745 349.585ZM334.282 348.177C334.159 348.189 334.038 348.22 333.924 348.268C333.769 348.314 333.643 348.428 333.583 348.578C333.471 348.832 333.534 348.94 333.596 348.998C334.03 349.476 336.056 349.245 337.526 348.881C336.498 348.444 335.397 348.205 334.282 348.177Z" fill="#0051CB"/>
<path d="M338.141 349.063C338.115 349.074 338.087 349.075 338.061 349.065C337.051 348.755 334.914 347.247 334.977 346.324C334.97 346.104 335.102 345.82 335.619 345.705C335.996 345.619 336.392 345.69 336.715 345.903C337.837 346.62 338.311 348.758 338.334 348.857C338.347 348.925 338.322 348.995 338.269 349.039C338.232 349.063 338.186 349.072 338.141 349.063ZM335.79 346.05L335.68 346.053C335.342 346.123 335.336 346.263 335.328 346.314C335.344 346.864 336.772 348.073 337.836 348.541C337.632 347.643 337.157 346.829 336.475 346.21C336.273 346.076 336.03 346.019 335.79 346.05Z" fill="#0051CB"/>
<path d="M338.856 347.841L347.612 346.79C347.942 346.75 348.256 346.944 348.367 347.258L350.805 354.192C351.026 354.805 350.707 355.482 350.094 355.702C350.015 355.73 349.934 355.75 349.851 355.761C346.688 356.085 343.86 356.249 339.931 356.726C335.293 357.284 336.537 357.697 331.094 358.43C327.814 358.868 326.765 355.206 328.135 354.855C334.414 353.287 334.845 351.283 337.03 348.706C337.512 348.203 338.161 347.896 338.856 347.841Z" fill="#263238"/>
<path d="M353.554 242.251C353.554 242.251 325.854 246.49 320.727 257.33C317.087 265.027 335.538 335.069 335.538 335.069L346.646 334.596C345.507 272.539 340.38 266.476 340.38 266.476C340.38 266.476 359.339 263.953 372.726 263.953C386.113 263.953 382.729 248.148 382.202 242.251C382.087 240.964 382.202 237.081 382.202 237.081H353.317L353.554 242.251Z" fill="#263238"/>
<g opacity="0.1">
<path d="M353.554 242.251C353.554 242.251 325.854 246.49 320.727 257.33C317.087 265.027 335.538 335.069 335.538 335.069L346.646 334.596C345.507 272.539 340.38 266.476 340.38 266.476C340.38 266.476 359.339 263.953 372.726 263.953C386.113 263.953 382.729 248.148 382.202 242.251C382.087 240.964 382.202 237.081 382.202 237.081H353.317L353.554 242.251Z" fill="black"/>
</g>
<path d="M334.282 332.35L347.105 331.97L347.763 338.236L335.092 338.779L334.282 332.35Z" fill="#263238"/>
<path opacity="0.3" d="M334.282 332.35L347.105 331.97L347.763 338.236L335.092 338.779L334.282 332.35Z" fill="white"/>
<path d="M307.112 333.002L313.344 351.419L320.632 350.446L316.92 330.931L307.112 333.002Z" fill="#B97964"/>
<path opacity="0.2" d="M319.396 343.95L316.92 330.931L307.112 333.002L311.163 344.975L319.396 343.95Z" fill="black"/>
<path d="M343.422 237.375C343.526 238.787 342.587 240.061 341.206 240.37C330.944 242.669 291.012 254.536 285.854 263.843C281.646 271.434 307.264 338.113 307.264 338.113L319.244 336.194C312.567 277.28 306.477 273.408 306.477 273.408C306.477 273.408 350.532 262.282 364.151 263.159C377.77 264.037 375.136 241.723 375.136 241.723V236.984H343.393L343.422 237.375Z" fill="#263238"/>
<path d="M305.643 335.999L319.841 333.907L320.917 339.796L307.292 342.021L305.643 335.999Z" fill="#263238"/>
<path opacity="0.3" d="M305.643 335.999L319.841 333.907L320.917 339.796L307.292 342.021L305.643 335.999Z" fill="white"/>
<path d="M308.844 351.953C307.822 352.009 306.755 351.88 306.392 351.46C306.203 351.212 306.19 350.873 306.36 350.612C306.485 350.378 306.696 350.203 306.949 350.122C308.301 349.669 311.261 351.149 311.391 351.215C311.464 351.252 311.507 351.331 311.496 351.413C311.485 351.494 311.426 351.56 311.347 351.581C310.525 351.777 309.688 351.902 308.844 351.953ZM307.448 350.425C307.322 350.43 307.197 350.453 307.078 350.494C306.917 350.531 306.782 350.639 306.711 350.788C306.58 351.038 306.637 351.153 306.696 351.216C307.107 351.73 309.182 351.629 310.702 351.355C309.685 350.842 308.582 350.526 307.448 350.425Z" fill="#0051CB"/>
<path d="M311.316 351.579C311.289 351.588 311.26 351.587 311.234 351.576C310.227 351.194 308.152 349.52 308.277 348.585C308.285 348.361 308.437 348.08 308.971 347.997C309.36 347.934 309.759 348.033 310.074 348.27C311.169 349.073 311.511 351.279 311.527 351.382C311.536 351.452 311.506 351.521 311.449 351.563C311.409 351.585 311.361 351.591 311.316 351.579ZM309.122 348.36L309.01 348.356C308.661 348.405 308.646 348.547 308.634 348.598C308.615 349.159 309.987 350.482 311.04 351.029C310.891 350.102 310.461 349.243 309.809 348.568C309.612 348.418 309.368 348.344 309.122 348.36Z" fill="#0051CB"/>
<path d="M312.123 350.383L321.1 349.888C321.438 349.869 321.745 350.088 321.837 350.414L323.862 357.628C324.047 358.267 323.678 358.934 323.04 359.118C322.958 359.142 322.874 359.157 322.789 359.162C319.55 359.284 316.663 359.266 312.634 359.493C307.88 359.757 309.117 360.259 303.532 360.647C300.167 360.877 299.339 357.083 300.757 356.816C307.247 355.633 307.817 353.622 310.21 351.144C310.733 350.664 311.414 350.393 312.123 350.383Z" fill="#263238"/>
<path d="M331.192 174.067C331.177 172.491 332.466 171.212 334.057 171.242C334.057 171.242 351.39 169.643 359.309 171.12C365.176 172.214 370.704 174.502 373.617 179.661C379.285 189.697 382.703 199.021 382.584 237.664L343.384 237.564C343.384 237.564 342.531 230.587 340.087 218.182C337.376 204.417 331.321 187.342 331.192 174.067Z" fill="#0051CB"/>
<path opacity="0.2" d="M332.758 182.495C333.52 188.043 334.743 193.932 336.05 199.754C343.738 185.16 338.118 178.126 338.118 178.126L332.758 182.495Z" fill="black"/>
<path d="M313.384 204.388L294.327 208.762L286.43 204.785L279.14 207.696C278.644 207.894 278.284 208.332 278.185 208.857L277.733 211.255C277.516 212.406 278.598 213.378 279.719 213.039L282.627 212.159L288.851 214.247L294.375 214.02L315.726 215.297L313.384 204.388Z" fill="#B97964"/>
<path d="M312.816 215.544C315.08 215.569 316.924 215.414 317.902 214.97C322.19 213.023 333.144 196.549 338.172 188.032C339.987 184.957 341.064 179.268 337.125 172.923C335.769 170.738 332.579 170.702 331.087 172.796C328.193 176.86 323.449 184.687 313.469 202.849L310.696 203.439L312.816 215.544Z" fill="#0051CB"/>
<path d="M308.915 203.399L312.462 202.548C312.462 202.548 312.533 209.287 315.725 216.096H310.902C310.902 216.096 308.064 210.634 308.915 203.399Z" fill="#0051CB"/>
<path opacity="0.3" d="M308.915 203.399L312.462 202.548C312.462 202.548 312.533 209.287 315.725 216.096H310.902C310.902 216.096 308.064 210.634 308.915 203.399Z" fill="white"/>
<path d="M393.861 361.184L363.748 350.095L333.307 361.192C332.256 361.575 331.144 360.797 331.144 359.678C331.144 359.051 331.508 358.481 332.077 358.217L363.748 343.522L395.1 358.216C395.666 358.481 396.027 359.049 396.027 359.673C396.026 360.793 394.911 361.571 393.861 361.184Z" fill="#263238"/>
<path opacity="0.5" d="M393.861 361.184L363.748 350.095L333.307 361.192C332.256 361.575 331.144 360.797 331.144 359.678C331.144 359.051 331.508 358.481 332.077 358.217L363.748 343.522L395.1 358.216C395.666 358.481 396.027 359.049 396.027 359.673C396.026 360.793 394.911 361.571 393.861 361.184Z" fill="white"/>
<path opacity="0.2" d="M356.652 352.682L363.748 350.095L370.519 352.589V346.696L363.748 343.523L356.652 346.816V352.682Z" fill="black"/>
<path d="M363.585 361.441C362.206 361.441 361.054 360.393 360.923 359.021L360.073 350.095V276.006H367.097V350.095L366.247 359.021C366.116 360.393 364.964 361.441 363.585 361.441Z" fill="#263238"/>
<path opacity="0.5" d="M363.585 361.441C362.206 361.441 361.054 360.393 360.923 359.021L360.073 350.095V276.006H367.097V350.095L366.247 359.021C366.116 360.393 364.964 361.441 363.585 361.441Z" fill="white"/>
<path opacity="0.2" d="M367.097 276.005H360.073V284.633H367.097V276.005Z" fill="black"/>
<path d="M412.437 266.872C404.491 264.845 396.326 263.731 388.138 263.526C379.7 263.314 348.116 263.494 340.615 263.491C331.485 263.487 322.355 264.613 313.497 266.872C307.929 268.292 309.645 276.328 314.674 276.421C315.118 276.429 410.596 276.4 410.947 276.416C416.208 276.655 418.127 268.323 412.437 266.872Z" fill="#0051CB"/>
<path opacity="0.5" d="M412.437 266.872C404.491 264.845 396.326 263.731 388.138 263.526C379.7 263.314 348.116 263.494 340.615 263.491C331.485 263.487 322.355 264.613 313.497 266.872C307.929 268.292 309.645 276.328 314.674 276.421C315.118 276.429 410.596 276.4 410.947 276.416C416.208 276.655 418.127 268.323 412.437 266.872Z" fill="black"/>
<path d="M316.082 276.25C332.121 272.16 349.109 272.16 365.148 276.25C371.215 277.797 373.803 268.42 367.733 266.872C350.017 262.354 331.212 262.354 313.496 266.872C307.436 268.418 310.005 277.799 316.082 276.25Z" fill="#0051CB"/>
<g opacity="0.2">
<path d="M316.082 276.25C332.121 272.16 349.109 272.16 365.148 276.25C371.215 277.797 373.803 268.42 367.733 266.872C350.017 262.354 331.212 262.354 313.496 266.872C307.436 268.418 310.005 277.799 316.082 276.25Z" fill="black"/>
</g>
<path d="M400.957 198.095C388.612 198.095 377.376 208.102 375.86 220.447L370.036 267.877C369.657 270.96 372.063 273.679 375.169 273.679H382.337H407.801H414.969C418.524 273.679 421.521 271.028 421.954 267.499L427.731 220.446C429.247 208.101 420.468 198.094 408.124 198.094H400.957V198.095Z" fill="#0051CB"/>
<path opacity="0.2" d="M400.957 198.095C388.612 198.095 377.376 208.102 375.86 220.447L370.036 267.877C369.657 270.96 372.063 273.679 375.169 273.679H382.337H407.801H414.969C418.524 273.679 421.521 271.028 421.954 267.499L427.731 220.446C429.247 208.101 420.468 198.094 408.124 198.094H400.957V198.095Z" fill="black"/>
<path d="M414.97 273.679H382.338C379.232 273.679 376.826 270.96 377.204 267.877L383.028 220.447C384.544 208.102 395.78 198.095 408.124 198.095C420.469 198.095 429.247 208.102 427.732 220.447L421.955 267.5C421.522 271.028 418.525 273.679 414.97 273.679Z" fill="#0051CB"/>
<path opacity="0.4" d="M414.97 273.679H382.338C379.232 273.679 376.826 270.96 377.204 267.877L383.028 220.447C384.544 208.102 395.78 198.095 408.124 198.095C420.469 198.095 429.247 208.102 427.732 220.447L421.955 267.5C421.522 271.028 418.525 273.679 414.97 273.679Z" fill="black"/>
<path d="M359.464 30.8521H279.888V117.681H359.464V30.8521Z" fill="#0051CB"/>
<path opacity="0.7" d="M359.464 30.8521H279.888V117.681H359.464V30.8521Z" fill="white"/>
<path d="M349.527 54.981L355.876 38.703L339.598 45.051L349.527 54.981Z" fill="white"/>
<path d="M290.896 93.1321L285.074 98.9541C282.945 101.083 282.945 104.535 285.074 106.664L287.915 109.504C290.044 111.633 293.496 111.633 295.625 109.504L301.447 103.682L290.896 93.1321Z" fill="#0051CB"/>
<path d="M304.732 68.6191C306.953 71.3321 310.172 74.8251 314.761 79.4141C333.92 98.5731 351.814 111.743 354.728 108.83C357.641 105.917 344.471 88.0231 325.312 68.8641C320.723 64.2751 317.23 61.0551 314.517 58.8351L304.732 68.6191Z" fill="#0051CB"/>
<path d="M313.347 80.828C311.479 78.96 309.823 77.257 308.342 75.686L292.31 91.718L302.861 102.269L318.89 86.24C317.051 84.486 315.199 82.68 313.347 80.828Z" fill="#263238"/>
<path d="M326.726 67.45C328.578 69.302 330.384 71.153 332.138 72.992L348.424 56.706L337.873 46.156L321.584 62.445C323.155 63.926 324.858 65.582 326.726 67.45Z" fill="#263238"/>
<path d="M300.4 61.1401C300.519 62.4321 301.361 64.2401 303.483 67.0391L312.937 57.5851C310.137 55.4631 308.329 54.6211 307.038 54.5021L300.4 61.1401Z" fill="white"/>
<path d="M306.888 51.823C306.565 50.654 305.958 49.444 305.018 48.239C301.25 43.408 284.221 40.571 284.221 40.571C284.221 40.571 290.117 54.289 292.816 57.751C294.184 59.505 295.919 60.561 297.79 60.92L306.888 51.823Z" fill="#263238"/>
<path d="M275.84 30.8521H196.264V117.681H275.84V30.8521Z" fill="#0051CB"/>
<path opacity="0.7" d="M275.84 30.8521H196.264V117.681H275.84V30.8521Z" fill="white"/>
<path d="M218.286 45.172C214.7 48.758 211.114 52.344 207.528 55.93C207.186 56.272 207.716 56.802 208.058 56.46C211.644 52.874 215.23 49.288 218.816 45.702C219.158 45.361 218.628 44.83 218.286 45.172Z" fill="#263238"/>
<path d="M265.356 92.2421C261.77 95.8281 258.184 99.4141 254.598 103C254.256 103.342 254.786 103.872 255.128 103.53C258.714 99.9441 262.3 96.3581 265.886 92.7721C266.228 92.4311 265.698 91.9001 265.356 92.2421Z" fill="#263238"/>
<path d="M264.456 56.6161C260.872 53.0321 257.287 49.4471 253.703 45.8631C253.361 45.5211 252.831 46.0511 253.173 46.3931C256.758 49.9781 260.342 53.5621 263.926 57.1461C264.267 57.4881 264.798 56.9581 264.456 56.6161Z" fill="#263238"/>
<path d="M217.386 103.686C213.801 100.101 210.216 96.517 206.632 92.932C206.29 92.59 205.76 93.121 206.102 93.462C209.687 97.047 213.272 100.631 216.856 104.216C217.198 104.558 217.728 104.028 217.386 103.686Z" fill="#263238"/>
<g opacity="0.5">
<path d="M218.286 45.172C214.7 48.758 211.114 52.344 207.528 55.93C207.186 56.272 207.716 56.802 208.058 56.46C211.644 52.874 215.23 49.288 218.816 45.702C219.158 45.361 218.628 44.83 218.286 45.172Z" fill="white"/>
</g>
<g opacity="0.5">
<path d="M265.356 92.2421C261.77 95.8281 258.184 99.4141 254.598 103C254.256 103.342 254.786 103.872 255.128 103.53C258.714 99.9441 262.3 96.3581 265.886 92.7721C266.228 92.4311 265.698 91.9001 265.356 92.2421Z" fill="white"/>
</g>
<g opacity="0.5">
<path d="M264.456 56.6161C260.872 53.0321 257.287 49.4471 253.703 45.8631C253.361 45.5211 252.831 46.0511 253.173 46.3931C256.758 49.9781 260.342 53.5621 263.926 57.1461C264.267 57.4881 264.798 56.9581 264.456 56.6161Z" fill="white"/>
</g>
<g opacity="0.5">
<path d="M217.386 103.686C213.801 100.101 210.216 96.517 206.632 92.932C206.29 92.59 205.76 93.121 206.102 93.462C209.687 97.047 213.272 100.631 216.856 104.216C217.198 104.558 217.728 104.028 217.386 103.686Z" fill="white"/>
</g>
<path d="M247.626 73.981C252.951 68.657 258.275 63.332 263.599 58.008C266.268 55.339 268.937 52.67 271.606 50.001C271.948 49.659 271.418 49.129 271.076 49.471C263.083 57.464 255.09 65.458 247.096 73.451C243.687 70.042 240.277 66.632 236.868 63.223C243.393 56.698 249.918 50.173 256.443 43.648C259.114 40.977 261.785 38.306 264.456 35.634C264.798 35.292 264.268 34.762 263.926 35.104C254.73 44.3 245.533 53.497 236.337 62.693C229.736 56.092 223.134 49.49 216.533 42.889C213.933 40.289 211.332 37.688 208.732 35.088C208.39 34.746 207.86 35.276 208.202 35.618C217.404 44.82 226.605 54.022 235.807 63.223C232.398 66.632 228.988 70.042 225.579 73.451C220.032 67.904 214.485 62.357 208.937 56.809C206.277 54.149 203.617 51.489 200.957 48.829C200.615 48.487 200.085 49.017 200.427 49.359C208.634 57.566 216.841 65.773 225.048 73.98C219.512 79.516 213.976 85.052 208.44 90.588C205.769 93.259 203.098 95.93 200.426 98.602C200.084 98.944 200.614 99.474 200.956 99.132C209.163 90.925 217.37 82.718 225.578 74.51C228.987 77.919 232.397 81.329 235.806 84.738C229.083 91.461 222.36 98.184 215.637 104.907C212.968 107.576 210.299 110.245 207.63 112.914C207.288 113.256 207.818 113.786 208.16 113.444C217.552 104.052 226.944 94.66 236.336 85.268C243.069 92.001 249.803 98.735 256.536 105.468C259.196 108.128 261.856 110.788 264.516 113.448C264.858 113.79 265.388 113.26 265.046 112.918C255.653 103.525 246.259 94.131 236.866 84.738C240.275 81.329 243.685 77.919 247.094 74.51C252.486 79.902 257.878 85.295 263.271 90.687C265.871 93.287 268.472 95.888 271.072 98.488C271.414 98.83 271.944 98.3 271.602 97.958C263.611 89.967 255.618 81.974 247.626 73.981ZM236.337 84.209C232.928 80.8 229.518 77.39 226.109 73.981C229.518 70.572 232.928 67.162 236.337 63.753C239.746 67.162 243.156 70.572 246.565 73.981C243.156 77.391 239.747 80.8 236.337 84.209Z" fill="#263238"/>
<path opacity="0.6" d="M247.626 73.981C252.951 68.657 258.275 63.332 263.599 58.008C266.268 55.339 268.937 52.67 271.606 50.001C271.948 49.659 271.418 49.129 271.076 49.471C263.083 57.464 255.09 65.458 247.096 73.451C243.687 70.042 240.277 66.632 236.868 63.223C243.393 56.698 249.918 50.173 256.443 43.648C259.114 40.977 261.785 38.306 264.456 35.634C264.798 35.292 264.268 34.762 263.926 35.104C254.73 44.3 245.533 53.497 236.337 62.693C229.736 56.092 223.134 49.49 216.533 42.889C213.933 40.289 211.332 37.688 208.732 35.088C208.39 34.746 207.86 35.276 208.202 35.618C217.404 44.82 226.605 54.022 235.807 63.223C232.398 66.632 228.988 70.042 225.579 73.451C220.032 67.904 214.485 62.357 208.937 56.809C206.277 54.149 203.617 51.489 200.957 48.829C200.615 48.487 200.085 49.017 200.427 49.359C208.634 57.566 216.841 65.773 225.048 73.98C219.512 79.516 213.976 85.052 208.44 90.588C205.769 93.259 203.098 95.93 200.426 98.602C200.084 98.944 200.614 99.474 200.956 99.132C209.163 90.925 217.37 82.718 225.578 74.51C228.987 77.919 232.397 81.329 235.806 84.738C229.083 91.461 222.36 98.184 215.637 104.907C212.968 107.576 210.299 110.245 207.63 112.914C207.288 113.256 207.818 113.786 208.16 113.444C217.552 104.052 226.944 94.66 236.336 85.268C243.069 92.001 249.803 98.735 256.536 105.468C259.196 108.128 261.856 110.788 264.516 113.448C264.858 113.79 265.388 113.26 265.046 112.918C255.653 103.525 246.259 94.131 236.866 84.738C240.275 81.329 243.685 77.919 247.094 74.51C252.486 79.902 257.878 85.295 263.271 90.687C265.871 93.287 268.472 95.888 271.072 98.488C271.414 98.83 271.944 98.3 271.602 97.958C263.611 89.967 255.618 81.974 247.626 73.981ZM236.337 84.209C232.928 80.8 229.518 77.39 226.109 73.981C229.518 70.572 232.928 67.162 236.337 63.753C239.746 67.162 243.156 70.572 246.565 73.981C243.156 77.391 239.747 80.8 236.337 84.209Z" fill="white"/>
<path d="M273.095 37.4871L255.042 44.5281L266.054 55.5401L273.095 37.4871ZM256.832 44.9031L271.335 39.2471L265.679 53.7501L256.832 44.9031Z" fill="#263238"/>
<path d="M201.06 98.2651C199.935 99.3891 199.316 100.884 199.316 102.473C199.316 104.063 199.935 105.558 201.06 106.682L203.9 109.523C205.024 110.647 206.519 111.266 208.108 111.266C209.698 111.266 211.193 110.647 212.316 109.522L218.492 103.346L207.235 92.0891L201.06 98.2651ZM211.61 108.815C210.675 109.751 209.431 110.266 208.109 110.266C206.786 110.266 205.543 109.751 204.608 108.816L201.768 105.975C200.832 105.04 200.317 103.796 200.317 102.473C200.317 101.15 200.832 99.9071 201.768 98.9721L207.237 93.5031L217.08 103.346L211.61 108.815Z" fill="#263238"/>
<path d="M247.76 74.0791L265.47 56.3691L254.213 45.1111L236.498 62.8261C234.499 60.9541 232.73 59.3841 231.174 58.1101L230.823 57.8231L220.398 68.2481L220.685 68.5991C221.958 70.1551 223.527 71.9241 225.4 73.9231L207.942 91.3801L219.2 102.638L236.654 85.1841C250.402 98.2271 264.662 109.37 269.909 109.37C270.555 109.37 271.065 109.201 271.42 108.846C273.072 107.195 270.925 102.303 265.039 94.3061C260.654 88.3481 254.646 81.3271 247.76 74.0791ZM254.213 46.5261L264.056 56.3701L247.072 73.3551C245.428 71.6361 243.736 69.9051 242.005 68.1751C240.28 66.4501 238.694 64.9031 237.227 63.5131L254.213 46.5261ZM246.365 74.0611L236.636 83.7901C234.939 82.1681 233.212 80.4811 231.455 78.7251C229.727 76.9971 228.183 75.4121 226.794 73.9461L236.52 64.2201C237.986 65.6091 239.571 67.1531 241.299 68.8811C243.029 70.6121 244.721 72.3421 246.365 74.0611ZM221.746 68.3151L230.889 59.1721C232.336 60.3731 233.965 61.8231 235.791 63.5331L226.107 73.2171C224.397 71.3921 222.947 69.7631 221.746 68.3151ZM219.201 101.225L209.357 91.3811L226.086 74.6521C227.476 76.1191 229.023 77.7051 230.748 79.4301C232.452 81.1341 234.186 82.8271 235.932 84.4931L219.201 101.225ZM270.714 108.14C268.618 110.238 254.859 101.104 237.36 84.4801L247.053 74.7861C253.903 81.9961 259.876 88.9771 264.234 94.8991C270.399 103.275 271.623 107.231 270.714 108.14Z" fill="#263238"/>
<path d="M223.19 53.6461L216.22 60.6161L216.241 60.8491C216.381 62.3691 217.393 64.3251 219.424 67.0051L219.77 67.4621L230.035 57.1971L229.578 56.8511C226.898 54.8201 224.942 53.8081 223.422 53.6681L223.19 53.6461ZM228.515 57.3041L219.878 65.9411C218.315 63.8171 217.458 62.1891 217.266 60.9841L223.558 54.6921C224.764 54.8841 226.391 55.7421 228.515 57.3041Z" fill="#263238"/>
<path d="M208.762 57.723C210.166 59.523 211.99 60.683 214.037 61.076L214.297 61.126L223.788 51.635L223.71 51.354C223.355 50.07 222.696 48.806 221.753 47.596C217.909 42.668 201.347 39.86 200.644 39.742L199.741 39.592L200.102 40.433C200.344 40.994 206.055 54.249 208.762 57.723ZM220.965 48.21C221.758 49.228 222.33 50.28 222.665 51.343L213.969 60.039C212.267 59.647 210.744 58.638 209.552 57.107C207.309 54.23 202.728 43.939 201.394 40.892C204.954 41.56 217.849 44.216 220.965 48.21Z" fill="#263238"/>
<path d="M192.216 30.8521H112.64V117.681H192.216V30.8521Z" fill="#0051CB"/>
<path opacity="0.7" d="M192.216 30.8521H112.64V117.681H192.216V30.8521Z" fill="white"/>
<path d="M134.662 45.172C131.076 48.758 127.49 52.344 123.904 55.93C123.562 56.272 124.092 56.802 124.434 56.46C128.02 52.874 131.606 49.288 135.192 45.702C135.534 45.361 135.004 44.83 134.662 45.172Z" fill="#263238"/>
<path d="M181.732 92.2421C178.146 95.8281 174.56 99.4141 170.974 103C170.632 103.342 171.163 103.872 171.504 103.53C175.09 99.9441 178.676 96.3581 182.262 92.7721C182.604 92.4311 182.074 91.9001 181.732 92.2421Z" fill="#263238"/>
<path d="M180.832 56.6161C177.247 53.0321 173.663 49.4471 170.079 45.8631C169.737 45.5211 169.207 46.0511 169.549 46.3931C173.133 49.9781 176.718 53.5621 180.302 57.1461C180.643 57.4881 181.174 56.9581 180.832 56.6161Z" fill="#263238"/>
<path d="M133.762 103.686C130.177 100.101 126.592 96.517 123.008 92.932C122.666 92.59 122.136 93.121 122.478 93.462C126.063 97.047 129.648 100.631 133.232 104.216C133.574 104.558 134.104 104.028 133.762 103.686Z" fill="#263238"/>
<g opacity="0.5">
<path d="M134.662 45.172C131.076 48.758 127.49 52.344 123.904 55.93C123.562 56.272 124.092 56.802 124.434 56.46C128.02 52.874 131.606 49.288 135.192 45.702C135.534 45.361 135.004 44.83 134.662 45.172Z" fill="white"/>
</g>
<g opacity="0.5">
<path d="M181.732 92.2421C178.146 95.8281 174.56 99.4141 170.974 103C170.632 103.342 171.163 103.872 171.504 103.53C175.09 99.9441 178.676 96.3581 182.262 92.7721C182.604 92.4311 182.074 91.9001 181.732 92.2421Z" fill="white"/>
</g>
<g opacity="0.5">
<path d="M180.832 56.6161C177.247 53.0321 173.663 49.4471 170.079 45.8631C169.737 45.5211 169.207 46.0511 169.549 46.3931C173.133 49.9781 176.718 53.5621 180.302 57.1461C180.643 57.4881 181.174 56.9581 180.832 56.6161Z" fill="white"/>
</g>
<g opacity="0.5">
<path d="M133.762 103.686C130.177 100.101 126.592 96.517 123.008 92.932C122.666 92.59 122.136 93.121 122.478 93.462C126.063 97.047 129.648 100.631 133.232 104.216C133.574 104.558 134.104 104.028 133.762 103.686Z" fill="white"/>
</g>
<path d="M164.001 73.981C169.326 68.657 174.65 63.332 179.974 58.008C182.643 55.339 185.312 52.67 187.981 50.001C188.323 49.659 187.793 49.129 187.451 49.471C179.458 57.464 171.465 65.458 163.471 73.451C160.061 70.042 156.652 66.632 153.243 63.223C159.768 56.698 166.293 50.173 172.819 43.648C175.49 40.977 178.161 38.306 180.832 35.634C181.174 35.292 180.643 34.762 180.302 35.104C171.106 44.3 161.909 53.497 152.713 62.693C146.112 56.092 139.51 49.49 132.909 42.889C130.309 40.289 127.708 37.688 125.108 35.088C124.766 34.746 124.236 35.276 124.578 35.618C133.78 44.82 142.982 54.022 152.183 63.223C148.774 66.632 145.364 70.042 141.955 73.451C136.408 67.904 130.861 62.357 125.313 56.809C122.653 54.149 119.993 51.489 117.333 48.829C116.991 48.487 116.461 49.017 116.803 49.359C125.01 57.566 133.217 65.773 141.424 73.98C135.888 79.516 130.352 85.052 124.816 90.588C122.145 93.259 119.474 95.93 116.802 98.602C116.46 98.944 116.99 99.474 117.332 99.132C125.539 90.925 133.747 82.718 141.954 74.51C145.363 77.919 148.773 81.329 152.182 84.738C145.459 91.461 138.736 98.184 132.013 104.907C129.344 107.576 126.675 110.245 124.006 112.914C123.664 113.256 124.194 113.786 124.536 113.444C133.928 104.052 143.32 94.66 152.712 85.268C159.445 92.001 166.179 98.735 172.912 105.468C175.572 108.128 178.232 110.788 180.892 113.448C181.234 113.79 181.764 113.26 181.422 112.918C172.029 103.525 162.635 94.131 153.242 84.738C156.652 81.329 160.061 77.919 163.47 74.51C168.862 79.902 174.254 85.295 179.647 90.687C182.247 93.287 184.848 95.888 187.448 98.488C187.79 98.83 188.32 98.3 187.979 97.958C179.987 89.967 171.994 81.974 164.001 73.981ZM152.713 84.209C149.303 80.8 145.894 77.39 142.485 73.981C145.895 70.572 149.304 67.162 152.713 63.753C156.122 67.162 159.532 70.572 162.941 73.981C159.532 77.391 156.122 80.8 152.713 84.209Z" fill="#263238"/>
<path opacity="0.6" d="M164.001 73.981C169.326 68.657 174.65 63.332 179.974 58.008C182.643 55.339 185.312 52.67 187.981 50.001C188.323 49.659 187.793 49.129 187.451 49.471C179.458 57.464 171.465 65.458 163.471 73.451C160.061 70.042 156.652 66.632 153.243 63.223C159.768 56.698 166.293 50.173 172.819 43.648C175.49 40.977 178.161 38.306 180.832 35.634C181.174 35.292 180.643 34.762 180.302 35.104C171.106 44.3 161.909 53.497 152.713 62.693C146.112 56.092 139.51 49.49 132.909 42.889C130.309 40.289 127.708 37.688 125.108 35.088C124.766 34.746 124.236 35.276 124.578 35.618C133.78 44.82 142.982 54.022 152.183 63.223C148.774 66.632 145.364 70.042 141.955 73.451C136.408 67.904 130.861 62.357 125.313 56.809C122.653 54.149 119.993 51.489 117.333 48.829C116.991 48.487 116.461 49.017 116.803 49.359C125.01 57.566 133.217 65.773 141.424 73.98C135.888 79.516 130.352 85.052 124.816 90.588C122.145 93.259 119.474 95.93 116.802 98.602C116.46 98.944 116.99 99.474 117.332 99.132C125.539 90.925 133.747 82.718 141.954 74.51C145.363 77.919 148.773 81.329 152.182 84.738C145.459 91.461 138.736 98.184 132.013 104.907C129.344 107.576 126.675 110.245 124.006 112.914C123.664 113.256 124.194 113.786 124.536 113.444C133.928 104.052 143.32 94.66 152.712 85.268C159.445 92.001 166.179 98.735 172.912 105.468C175.572 108.128 178.232 110.788 180.892 113.448C181.234 113.79 181.764 113.26 181.422 112.918C172.029 103.525 162.635 94.131 153.242 84.738C156.652 81.329 160.061 77.919 163.47 74.51C168.862 79.902 174.254 85.295 179.647 90.687C182.247 93.287 184.848 95.888 187.448 98.488C187.79 98.83 188.32 98.3 187.979 97.958C179.987 89.967 171.994 81.974 164.001 73.981ZM152.713 84.209C149.303 80.8 145.894 77.39 142.485 73.981C145.895 70.572 149.304 67.162 152.713 63.753C156.122 67.162 159.532 70.572 162.941 73.981C159.532 77.391 156.122 80.8 152.713 84.209Z" fill="white"/>
</svg>
