<svg width="426" height="94" viewBox="0 0 426 94" fill="none" xmlns="http://www.w3.org/2000/svg">
<path d="M17.3517 50.5805C17.3517 38.8631 24.9335 37.9769 36.8479 39.1585V21.6316C28.3798 21.6316 20.0103 25.1764 15.9732 31.3797V22.0255H0.514073V75H17.3517V50.5805Z" fill="#0051CB"/>
<path d="M95.688 22.0255H78.555L67.7238 55.8977L57.0895 22.0255H38.7749L57.9757 75H76.6841L95.688 22.0255ZM121.324 9.71731C121.324 4.10478 116.893 0.0676871 110.493 0.0676871C104.093 0.0676871 99.662 4.10478 99.662 9.71731C99.662 15.2314 104.093 19.2685 110.493 19.2685C116.893 19.2685 121.324 15.2314 121.324 9.71731ZM119.06 75V22.0255H102.222V75H119.06ZM148.422 47.1342C148.422 39.1585 152.164 36.2046 156.3 36.2046C161.42 36.2046 163.783 39.8478 163.783 46.5434V75H180.621V40.9309C180.621 28.0319 173.236 21.0409 162.798 21.0409C156.103 21.0409 151.179 23.7979 147.044 28.4258V22.0255H131.585V75H148.422V47.1342ZM247.525 48.5128C247.525 33.3491 238.171 21.0409 223.893 21.0409C217.69 21.0409 212.471 23.5025 208.139 28.0319V22.0255H192.68V94.0039H209.517V70.0767C213.653 74.0153 218.379 75.9847 223.893 75.9847C238.171 75.9847 247.525 63.8734 247.525 48.5128ZM229.998 48.5128C229.998 56.9808 224.976 60.821 219.856 60.821C214.736 60.821 209.714 57.0793 209.714 48.6112C209.714 40.2416 214.637 36.2046 219.856 36.2046C224.976 36.2046 229.998 40.2416 229.998 48.5128ZM287.676 75H301.264V42.3094C301.264 28.9181 292.698 21.0409 278.125 21.0409C265.029 21.0409 255.871 29.115 254.887 41.4232H270.051C270.641 36.7954 273.398 34.2352 278.026 34.2352C282.753 34.2352 285.411 36.7954 285.411 41.4232V43.9833C283.146 43.5895 280.488 43.3925 277.632 43.3925C262.469 43.3925 254.099 49.0051 254.099 59.344C254.099 69.3875 261.484 75.9847 272.512 75.9847C279.306 75.9847 283.934 74.1138 287.676 69.8798V75ZM269.952 58.8516C269.952 55.2084 273.005 53.3376 278.716 53.3376C280.882 53.3376 282.851 53.5345 285.411 54.0268V57.3747C285.411 61.7071 282.063 64.3657 276.451 64.3657C272.315 64.3657 269.952 62.2979 269.952 58.8516ZM344.645 52.2544C344.645 58.2609 340.51 60.9194 337.162 60.9194C332.435 60.9194 329.58 58.0639 329.58 52.2544V22.0255H312.742V55.4053C312.742 69.3875 320.718 75.9847 331.254 75.9847C337.457 75.9847 343.07 73.2276 346.024 69.289V75H361.483V22.0255H344.645V52.2544ZM390.979 75V4.30171H373.945V75H390.979ZM412.234 75.3263C419.593 75.3263 425.104 69.7069 425.104 62.7462C425.104 55.7491 419.593 50.1298 412.234 50.1298C404.91 50.1298 399.4 55.7491 399.4 62.7462C399.4 69.7069 404.91 75.3263 412.234 75.3263ZM412.234 72.2084C406.723 72.2084 402.953 68.0755 402.953 62.7462C402.953 57.3806 406.723 53.2839 412.234 53.2839C417.817 53.2839 421.551 57.3806 421.551 62.7462C421.551 68.0755 417.817 72.2084 412.234 72.2084ZM415.098 63.58C414.844 65.1027 413.72 66.154 412.306 66.154C410.566 66.154 409.478 64.7764 409.478 62.7462C409.478 60.7159 410.566 59.3745 412.306 59.3745C413.756 59.3745 414.844 60.3897 415.098 61.9123H418.941C418.542 58.4682 415.823 56.1117 412.27 56.1117C408.644 56.1117 405.744 59.012 405.744 62.7462C405.744 66.4803 408.644 69.3806 412.27 69.3806C415.823 69.3806 418.542 67.0604 418.941 63.58H415.098Z" fill="#292929"/>
</svg>
