<svg width="427" height="94" viewBox="0 0 427 94" fill="none" xmlns="http://www.w3.org/2000/svg">
<path d="M17.3517 50.5805V75H0.514073V22.0255H15.9732V31.3797C20.0103 25.1764 28.3798 21.6316 36.8479 21.6316V39.1585C24.9335 37.9769 17.3517 38.8631 17.3517 50.5805Z" fill="#0051CB"/>
<path d="M96.6496 22.0255L77.6457 75H58.9372L39.7365 22.0255H58.0511L68.6853 55.8977L79.5165 22.0255H96.6496ZM122.286 9.71731C122.286 15.2314 117.855 19.2685 111.455 19.2685C105.055 19.2685 100.624 15.2314 100.624 9.71731C100.624 4.10478 105.055 0.0676871 111.455 0.0676871C117.855 0.0676871 122.286 4.10478 122.286 9.71731ZM120.021 75H103.184V22.0255H120.021V75ZM149.384 47.1342V75H132.546V22.0255H148.006V28.4258C152.141 23.7979 157.064 21.0409 163.76 21.0409C174.197 21.0409 181.582 28.0319 181.582 40.9309V75H164.745V46.5434C164.745 39.8478 162.381 36.2046 157.261 36.2046C153.126 36.2046 149.384 39.1585 149.384 47.1342ZM248.487 48.5128C248.487 63.8734 239.132 75.9847 224.855 75.9847C219.341 75.9847 214.614 74.0153 210.479 70.0767V94.0039H193.641V22.0255H209.1V28.0319C213.433 23.5025 218.651 21.0409 224.855 21.0409C239.132 21.0409 248.487 33.3491 248.487 48.5128ZM230.96 48.5128C230.96 40.2416 225.938 36.2046 220.818 36.2046C215.599 36.2046 210.676 40.2416 210.676 48.6112C210.676 57.0793 215.698 60.821 220.818 60.821C225.938 60.821 230.96 56.9808 230.96 48.5128ZM288.637 75V69.8798C284.896 74.1138 280.268 75.9847 273.474 75.9847C262.446 75.9847 255.061 69.3875 255.061 59.344C255.061 49.0051 263.43 43.3925 278.594 43.3925C281.449 43.3925 284.108 43.5895 286.373 43.9833V41.4232C286.373 36.7954 283.714 34.2352 278.988 34.2352C274.36 34.2352 271.603 36.7954 271.012 41.4232H255.848C256.833 29.115 265.99 21.0409 279.086 21.0409C293.659 21.0409 302.226 28.9181 302.226 42.3094V75H288.637ZM270.914 58.8516C270.914 62.2979 273.277 64.3657 277.412 64.3657C283.025 64.3657 286.373 61.7071 286.373 57.3747V54.0268C283.813 53.5345 281.843 53.3376 279.677 53.3376C273.966 53.3376 270.914 55.2084 270.914 58.8516ZM345.607 52.2544V22.0255H362.444V75H346.985V69.289C344.031 73.2276 338.419 75.9847 332.215 75.9847C321.68 75.9847 313.704 69.3875 313.704 55.4053V22.0255H330.541V52.2544C330.541 58.0639 333.397 60.9194 338.123 60.9194C341.471 60.9194 345.607 58.2609 345.607 52.2544ZM391.941 75H374.906V4.30171H391.941V75ZM413.195 75.3263C405.872 75.3263 400.361 69.7069 400.361 62.7462C400.361 55.7491 405.872 50.1298 413.195 50.1298C420.555 50.1298 426.065 55.7491 426.065 62.7462C426.065 69.7069 420.555 75.3263 413.195 75.3263ZM413.195 72.2084C418.778 72.2084 422.512 68.0755 422.512 62.7462C422.512 57.3806 418.778 53.2839 413.195 53.2839C407.685 53.2839 403.914 57.3806 403.914 62.7462C403.914 68.0755 407.685 72.2084 413.195 72.2084ZM416.059 63.58H419.902C419.503 67.0604 416.784 69.3806 413.231 69.3806C409.606 69.3806 406.706 66.4803 406.706 62.7462C406.706 59.012 409.606 56.1117 413.231 56.1117C416.784 56.1117 419.503 58.4682 419.902 61.9123H416.059C415.805 60.3897 414.718 59.3745 413.268 59.3745C411.527 59.3745 410.44 60.7159 410.44 62.7462C410.44 64.7764 411.527 66.154 413.268 66.154C414.682 66.154 415.805 65.1027 416.059 63.58Z" fill="white"/>
</svg>
